%TF.GenerationSoftware,KiCad,Pcbnew,9.0.5*%
%TF.CreationDate,2026-04-22T15:43:52+01:00*%
%TF.ProjectId,EWOD,45574f44-2e6b-4696-9361-645f70636258,7*%
%TF.SameCoordinates,Original*%
%TF.FileFunction,Legend,Top*%
%TF.FilePolarity,Positive*%
%FSLAX46Y46*%
G04 Gerber Fmt 4.6, Leading zero omitted, Abs format (unit mm)*
G04 Created by KiCad (PCBNEW 9.0.5) date 2026-04-22 15:43:52*
%MOMM*%
%LPD*%
G01*
G04 APERTURE LIST*
%ADD10C,0.150000*%
%ADD11C,0.254000*%
%ADD12C,0.101600*%
%ADD13C,0.250000*%
%ADD14C,0.120000*%
%ADD15C,0.100000*%
%ADD16C,0.127000*%
%ADD17C,0.504000*%
%ADD18C,0.200000*%
G04 APERTURE END LIST*
D10*
X126701398Y-100207417D02*
X126701398Y-99445513D01*
X126034732Y-98255037D02*
X127320446Y-99112179D01*
X126701398Y-97921703D02*
X126701398Y-97159799D01*
X127082351Y-97540751D02*
X126320446Y-97540751D01*
X146389437Y-116848428D02*
X146389437Y-117657951D01*
X146389437Y-117657951D02*
X146437056Y-117753189D01*
X146437056Y-117753189D02*
X146484675Y-117800809D01*
X146484675Y-117800809D02*
X146579913Y-117848428D01*
X146579913Y-117848428D02*
X146770389Y-117848428D01*
X146770389Y-117848428D02*
X146865627Y-117800809D01*
X146865627Y-117800809D02*
X146913246Y-117753189D01*
X146913246Y-117753189D02*
X146960865Y-117657951D01*
X146960865Y-117657951D02*
X146960865Y-116848428D01*
X147341818Y-116848428D02*
X147960865Y-116848428D01*
X147960865Y-116848428D02*
X147627532Y-117229380D01*
X147627532Y-117229380D02*
X147770389Y-117229380D01*
X147770389Y-117229380D02*
X147865627Y-117276999D01*
X147865627Y-117276999D02*
X147913246Y-117324618D01*
X147913246Y-117324618D02*
X147960865Y-117419856D01*
X147960865Y-117419856D02*
X147960865Y-117657951D01*
X147960865Y-117657951D02*
X147913246Y-117753189D01*
X147913246Y-117753189D02*
X147865627Y-117800809D01*
X147865627Y-117800809D02*
X147770389Y-117848428D01*
X147770389Y-117848428D02*
X147484675Y-117848428D01*
X147484675Y-117848428D02*
X147389437Y-117800809D01*
X147389437Y-117800809D02*
X147341818Y-117753189D01*
X148865627Y-116848428D02*
X148389437Y-116848428D01*
X148389437Y-116848428D02*
X148341818Y-117324618D01*
X148341818Y-117324618D02*
X148389437Y-117276999D01*
X148389437Y-117276999D02*
X148484675Y-117229380D01*
X148484675Y-117229380D02*
X148722770Y-117229380D01*
X148722770Y-117229380D02*
X148818008Y-117276999D01*
X148818008Y-117276999D02*
X148865627Y-117324618D01*
X148865627Y-117324618D02*
X148913246Y-117419856D01*
X148913246Y-117419856D02*
X148913246Y-117657951D01*
X148913246Y-117657951D02*
X148865627Y-117753189D01*
X148865627Y-117753189D02*
X148818008Y-117800809D01*
X148818008Y-117800809D02*
X148722770Y-117848428D01*
X148722770Y-117848428D02*
X148484675Y-117848428D01*
X148484675Y-117848428D02*
X148389437Y-117800809D01*
X148389437Y-117800809D02*
X148341818Y-117753189D01*
X158010865Y-79643189D02*
X157963246Y-79690809D01*
X157963246Y-79690809D02*
X157820389Y-79738428D01*
X157820389Y-79738428D02*
X157725151Y-79738428D01*
X157725151Y-79738428D02*
X157582294Y-79690809D01*
X157582294Y-79690809D02*
X157487056Y-79595570D01*
X157487056Y-79595570D02*
X157439437Y-79500332D01*
X157439437Y-79500332D02*
X157391818Y-79309856D01*
X157391818Y-79309856D02*
X157391818Y-79166999D01*
X157391818Y-79166999D02*
X157439437Y-78976523D01*
X157439437Y-78976523D02*
X157487056Y-78881285D01*
X157487056Y-78881285D02*
X157582294Y-78786047D01*
X157582294Y-78786047D02*
X157725151Y-78738428D01*
X157725151Y-78738428D02*
X157820389Y-78738428D01*
X157820389Y-78738428D02*
X157963246Y-78786047D01*
X157963246Y-78786047D02*
X158010865Y-78833666D01*
X158868008Y-78738428D02*
X158677532Y-78738428D01*
X158677532Y-78738428D02*
X158582294Y-78786047D01*
X158582294Y-78786047D02*
X158534675Y-78833666D01*
X158534675Y-78833666D02*
X158439437Y-78976523D01*
X158439437Y-78976523D02*
X158391818Y-79166999D01*
X158391818Y-79166999D02*
X158391818Y-79547951D01*
X158391818Y-79547951D02*
X158439437Y-79643189D01*
X158439437Y-79643189D02*
X158487056Y-79690809D01*
X158487056Y-79690809D02*
X158582294Y-79738428D01*
X158582294Y-79738428D02*
X158772770Y-79738428D01*
X158772770Y-79738428D02*
X158868008Y-79690809D01*
X158868008Y-79690809D02*
X158915627Y-79643189D01*
X158915627Y-79643189D02*
X158963246Y-79547951D01*
X158963246Y-79547951D02*
X158963246Y-79309856D01*
X158963246Y-79309856D02*
X158915627Y-79214618D01*
X158915627Y-79214618D02*
X158868008Y-79166999D01*
X158868008Y-79166999D02*
X158772770Y-79119380D01*
X158772770Y-79119380D02*
X158582294Y-79119380D01*
X158582294Y-79119380D02*
X158487056Y-79166999D01*
X158487056Y-79166999D02*
X158439437Y-79214618D01*
X158439437Y-79214618D02*
X158391818Y-79309856D01*
X148582351Y-89481228D02*
X148106160Y-89814561D01*
X148582351Y-90052656D02*
X147582351Y-90052656D01*
X147582351Y-90052656D02*
X147582351Y-89671704D01*
X147582351Y-89671704D02*
X147629970Y-89576466D01*
X147629970Y-89576466D02*
X147677589Y-89528847D01*
X147677589Y-89528847D02*
X147772827Y-89481228D01*
X147772827Y-89481228D02*
X147915684Y-89481228D01*
X147915684Y-89481228D02*
X148010922Y-89528847D01*
X148010922Y-89528847D02*
X148058541Y-89576466D01*
X148058541Y-89576466D02*
X148106160Y-89671704D01*
X148106160Y-89671704D02*
X148106160Y-90052656D01*
X148534732Y-89100275D02*
X148582351Y-88957418D01*
X148582351Y-88957418D02*
X148582351Y-88719323D01*
X148582351Y-88719323D02*
X148534732Y-88624085D01*
X148534732Y-88624085D02*
X148487112Y-88576466D01*
X148487112Y-88576466D02*
X148391874Y-88528847D01*
X148391874Y-88528847D02*
X148296636Y-88528847D01*
X148296636Y-88528847D02*
X148201398Y-88576466D01*
X148201398Y-88576466D02*
X148153779Y-88624085D01*
X148153779Y-88624085D02*
X148106160Y-88719323D01*
X148106160Y-88719323D02*
X148058541Y-88909799D01*
X148058541Y-88909799D02*
X148010922Y-89005037D01*
X148010922Y-89005037D02*
X147963303Y-89052656D01*
X147963303Y-89052656D02*
X147868065Y-89100275D01*
X147868065Y-89100275D02*
X147772827Y-89100275D01*
X147772827Y-89100275D02*
X147677589Y-89052656D01*
X147677589Y-89052656D02*
X147629970Y-89005037D01*
X147629970Y-89005037D02*
X147582351Y-88909799D01*
X147582351Y-88909799D02*
X147582351Y-88671704D01*
X147582351Y-88671704D02*
X147629970Y-88528847D01*
X148058541Y-88100275D02*
X148058541Y-87766942D01*
X148582351Y-87624085D02*
X148582351Y-88100275D01*
X148582351Y-88100275D02*
X147582351Y-88100275D01*
X147582351Y-88100275D02*
X147582351Y-87624085D01*
X148582351Y-87195513D02*
X147582351Y-87195513D01*
X147582351Y-87195513D02*
X148582351Y-86624085D01*
X148582351Y-86624085D02*
X147582351Y-86624085D01*
X148534732Y-86195513D02*
X148582351Y-86052656D01*
X148582351Y-86052656D02*
X148582351Y-85814561D01*
X148582351Y-85814561D02*
X148534732Y-85719323D01*
X148534732Y-85719323D02*
X148487112Y-85671704D01*
X148487112Y-85671704D02*
X148391874Y-85624085D01*
X148391874Y-85624085D02*
X148296636Y-85624085D01*
X148296636Y-85624085D02*
X148201398Y-85671704D01*
X148201398Y-85671704D02*
X148153779Y-85719323D01*
X148153779Y-85719323D02*
X148106160Y-85814561D01*
X148106160Y-85814561D02*
X148058541Y-86005037D01*
X148058541Y-86005037D02*
X148010922Y-86100275D01*
X148010922Y-86100275D02*
X147963303Y-86147894D01*
X147963303Y-86147894D02*
X147868065Y-86195513D01*
X147868065Y-86195513D02*
X147772827Y-86195513D01*
X147772827Y-86195513D02*
X147677589Y-86147894D01*
X147677589Y-86147894D02*
X147629970Y-86100275D01*
X147629970Y-86100275D02*
X147582351Y-86005037D01*
X147582351Y-86005037D02*
X147582351Y-85766942D01*
X147582351Y-85766942D02*
X147629970Y-85624085D01*
X148058541Y-85195513D02*
X148058541Y-84862180D01*
X148582351Y-84719323D02*
X148582351Y-85195513D01*
X148582351Y-85195513D02*
X147582351Y-85195513D01*
X147582351Y-85195513D02*
X147582351Y-84719323D01*
X148582351Y-83766942D02*
X148582351Y-84338370D01*
X148582351Y-84052656D02*
X147582351Y-84052656D01*
X147582351Y-84052656D02*
X147725208Y-84147894D01*
X147725208Y-84147894D02*
X147820446Y-84243132D01*
X147820446Y-84243132D02*
X147868065Y-84338370D01*
X137217035Y-103354887D02*
X138026558Y-103354887D01*
X138026558Y-103354887D02*
X138121796Y-103307268D01*
X138121796Y-103307268D02*
X138169416Y-103259649D01*
X138169416Y-103259649D02*
X138217035Y-103164411D01*
X138217035Y-103164411D02*
X138217035Y-102973935D01*
X138217035Y-102973935D02*
X138169416Y-102878697D01*
X138169416Y-102878697D02*
X138121796Y-102831078D01*
X138121796Y-102831078D02*
X138026558Y-102783459D01*
X138026558Y-102783459D02*
X137217035Y-102783459D01*
X137312273Y-102354887D02*
X137264654Y-102307268D01*
X137264654Y-102307268D02*
X137217035Y-102212030D01*
X137217035Y-102212030D02*
X137217035Y-101973935D01*
X137217035Y-101973935D02*
X137264654Y-101878697D01*
X137264654Y-101878697D02*
X137312273Y-101831078D01*
X137312273Y-101831078D02*
X137407511Y-101783459D01*
X137407511Y-101783459D02*
X137502749Y-101783459D01*
X137502749Y-101783459D02*
X137645606Y-101831078D01*
X137645606Y-101831078D02*
X138217035Y-102402506D01*
X138217035Y-102402506D02*
X138217035Y-101783459D01*
X137217035Y-100926316D02*
X137217035Y-101116792D01*
X137217035Y-101116792D02*
X137264654Y-101212030D01*
X137264654Y-101212030D02*
X137312273Y-101259649D01*
X137312273Y-101259649D02*
X137455130Y-101354887D01*
X137455130Y-101354887D02*
X137645606Y-101402506D01*
X137645606Y-101402506D02*
X138026558Y-101402506D01*
X138026558Y-101402506D02*
X138121796Y-101354887D01*
X138121796Y-101354887D02*
X138169416Y-101307268D01*
X138169416Y-101307268D02*
X138217035Y-101212030D01*
X138217035Y-101212030D02*
X138217035Y-101021554D01*
X138217035Y-101021554D02*
X138169416Y-100926316D01*
X138169416Y-100926316D02*
X138121796Y-100878697D01*
X138121796Y-100878697D02*
X138026558Y-100831078D01*
X138026558Y-100831078D02*
X137788463Y-100831078D01*
X137788463Y-100831078D02*
X137693225Y-100878697D01*
X137693225Y-100878697D02*
X137645606Y-100926316D01*
X137645606Y-100926316D02*
X137597987Y-101021554D01*
X137597987Y-101021554D02*
X137597987Y-101212030D01*
X137597987Y-101212030D02*
X137645606Y-101307268D01*
X137645606Y-101307268D02*
X137693225Y-101354887D01*
X137693225Y-101354887D02*
X137788463Y-101402506D01*
D11*
X138311179Y-68069646D02*
X137706417Y-68069646D01*
X137706417Y-68069646D02*
X137706417Y-66799646D01*
X139399751Y-68069646D02*
X138674036Y-68069646D01*
X139036893Y-68069646D02*
X139036893Y-66799646D01*
X139036893Y-66799646D02*
X138915941Y-66981074D01*
X138915941Y-66981074D02*
X138794989Y-67102027D01*
X138794989Y-67102027D02*
X138674036Y-67162503D01*
D10*
X148210865Y-99538428D02*
X147877532Y-99062237D01*
X147639437Y-99538428D02*
X147639437Y-98538428D01*
X147639437Y-98538428D02*
X148020389Y-98538428D01*
X148020389Y-98538428D02*
X148115627Y-98586047D01*
X148115627Y-98586047D02*
X148163246Y-98633666D01*
X148163246Y-98633666D02*
X148210865Y-98728904D01*
X148210865Y-98728904D02*
X148210865Y-98871761D01*
X148210865Y-98871761D02*
X148163246Y-98966999D01*
X148163246Y-98966999D02*
X148115627Y-99014618D01*
X148115627Y-99014618D02*
X148020389Y-99062237D01*
X148020389Y-99062237D02*
X147639437Y-99062237D01*
X148591818Y-98633666D02*
X148639437Y-98586047D01*
X148639437Y-98586047D02*
X148734675Y-98538428D01*
X148734675Y-98538428D02*
X148972770Y-98538428D01*
X148972770Y-98538428D02*
X149068008Y-98586047D01*
X149068008Y-98586047D02*
X149115627Y-98633666D01*
X149115627Y-98633666D02*
X149163246Y-98728904D01*
X149163246Y-98728904D02*
X149163246Y-98824142D01*
X149163246Y-98824142D02*
X149115627Y-98966999D01*
X149115627Y-98966999D02*
X148544199Y-99538428D01*
X148544199Y-99538428D02*
X149163246Y-99538428D01*
X157460865Y-120138428D02*
X157127532Y-119662237D01*
X156889437Y-120138428D02*
X156889437Y-119138428D01*
X156889437Y-119138428D02*
X157270389Y-119138428D01*
X157270389Y-119138428D02*
X157365627Y-119186047D01*
X157365627Y-119186047D02*
X157413246Y-119233666D01*
X157413246Y-119233666D02*
X157460865Y-119328904D01*
X157460865Y-119328904D02*
X157460865Y-119471761D01*
X157460865Y-119471761D02*
X157413246Y-119566999D01*
X157413246Y-119566999D02*
X157365627Y-119614618D01*
X157365627Y-119614618D02*
X157270389Y-119662237D01*
X157270389Y-119662237D02*
X156889437Y-119662237D01*
X158365627Y-119138428D02*
X157889437Y-119138428D01*
X157889437Y-119138428D02*
X157841818Y-119614618D01*
X157841818Y-119614618D02*
X157889437Y-119566999D01*
X157889437Y-119566999D02*
X157984675Y-119519380D01*
X157984675Y-119519380D02*
X158222770Y-119519380D01*
X158222770Y-119519380D02*
X158318008Y-119566999D01*
X158318008Y-119566999D02*
X158365627Y-119614618D01*
X158365627Y-119614618D02*
X158413246Y-119709856D01*
X158413246Y-119709856D02*
X158413246Y-119947951D01*
X158413246Y-119947951D02*
X158365627Y-120043189D01*
X158365627Y-120043189D02*
X158318008Y-120090809D01*
X158318008Y-120090809D02*
X158222770Y-120138428D01*
X158222770Y-120138428D02*
X157984675Y-120138428D01*
X157984675Y-120138428D02*
X157889437Y-120090809D01*
X157889437Y-120090809D02*
X157841818Y-120043189D01*
X167115627Y-59388428D02*
X167115627Y-60197951D01*
X167115627Y-60197951D02*
X167163246Y-60293189D01*
X167163246Y-60293189D02*
X167210865Y-60340809D01*
X167210865Y-60340809D02*
X167306103Y-60388428D01*
X167306103Y-60388428D02*
X167496579Y-60388428D01*
X167496579Y-60388428D02*
X167591817Y-60340809D01*
X167591817Y-60340809D02*
X167639436Y-60293189D01*
X167639436Y-60293189D02*
X167687055Y-60197951D01*
X167687055Y-60197951D02*
X167687055Y-59388428D01*
X168068008Y-59388428D02*
X168734674Y-59388428D01*
X168734674Y-59388428D02*
X168306103Y-60388428D01*
X131115627Y-80388428D02*
X131687055Y-80388428D01*
X131401341Y-81388428D02*
X131401341Y-80388428D01*
X132544198Y-81388428D02*
X131972770Y-81388428D01*
X132258484Y-81388428D02*
X132258484Y-80388428D01*
X132258484Y-80388428D02*
X132163246Y-80531285D01*
X132163246Y-80531285D02*
X132068008Y-80626523D01*
X132068008Y-80626523D02*
X131972770Y-80674142D01*
X126210865Y-68293189D02*
X126163246Y-68340809D01*
X126163246Y-68340809D02*
X126020389Y-68388428D01*
X126020389Y-68388428D02*
X125925151Y-68388428D01*
X125925151Y-68388428D02*
X125782294Y-68340809D01*
X125782294Y-68340809D02*
X125687056Y-68245570D01*
X125687056Y-68245570D02*
X125639437Y-68150332D01*
X125639437Y-68150332D02*
X125591818Y-67959856D01*
X125591818Y-67959856D02*
X125591818Y-67816999D01*
X125591818Y-67816999D02*
X125639437Y-67626523D01*
X125639437Y-67626523D02*
X125687056Y-67531285D01*
X125687056Y-67531285D02*
X125782294Y-67436047D01*
X125782294Y-67436047D02*
X125925151Y-67388428D01*
X125925151Y-67388428D02*
X126020389Y-67388428D01*
X126020389Y-67388428D02*
X126163246Y-67436047D01*
X126163246Y-67436047D02*
X126210865Y-67483666D01*
X127163246Y-68388428D02*
X126591818Y-68388428D01*
X126877532Y-68388428D02*
X126877532Y-67388428D01*
X126877532Y-67388428D02*
X126782294Y-67531285D01*
X126782294Y-67531285D02*
X126687056Y-67626523D01*
X126687056Y-67626523D02*
X126591818Y-67674142D01*
X129210865Y-88793189D02*
X129163246Y-88840809D01*
X129163246Y-88840809D02*
X129020389Y-88888428D01*
X129020389Y-88888428D02*
X128925151Y-88888428D01*
X128925151Y-88888428D02*
X128782294Y-88840809D01*
X128782294Y-88840809D02*
X128687056Y-88745570D01*
X128687056Y-88745570D02*
X128639437Y-88650332D01*
X128639437Y-88650332D02*
X128591818Y-88459856D01*
X128591818Y-88459856D02*
X128591818Y-88316999D01*
X128591818Y-88316999D02*
X128639437Y-88126523D01*
X128639437Y-88126523D02*
X128687056Y-88031285D01*
X128687056Y-88031285D02*
X128782294Y-87936047D01*
X128782294Y-87936047D02*
X128925151Y-87888428D01*
X128925151Y-87888428D02*
X129020389Y-87888428D01*
X129020389Y-87888428D02*
X129163246Y-87936047D01*
X129163246Y-87936047D02*
X129210865Y-87983666D01*
X130115627Y-87888428D02*
X129639437Y-87888428D01*
X129639437Y-87888428D02*
X129591818Y-88364618D01*
X129591818Y-88364618D02*
X129639437Y-88316999D01*
X129639437Y-88316999D02*
X129734675Y-88269380D01*
X129734675Y-88269380D02*
X129972770Y-88269380D01*
X129972770Y-88269380D02*
X130068008Y-88316999D01*
X130068008Y-88316999D02*
X130115627Y-88364618D01*
X130115627Y-88364618D02*
X130163246Y-88459856D01*
X130163246Y-88459856D02*
X130163246Y-88697951D01*
X130163246Y-88697951D02*
X130115627Y-88793189D01*
X130115627Y-88793189D02*
X130068008Y-88840809D01*
X130068008Y-88840809D02*
X129972770Y-88888428D01*
X129972770Y-88888428D02*
X129734675Y-88888428D01*
X129734675Y-88888428D02*
X129639437Y-88840809D01*
X129639437Y-88840809D02*
X129591818Y-88793189D01*
X126832351Y-94457418D02*
X125832351Y-94457418D01*
X125832351Y-94457418D02*
X125832351Y-94076466D01*
X125832351Y-94076466D02*
X125879970Y-93981228D01*
X125879970Y-93981228D02*
X125927589Y-93933609D01*
X125927589Y-93933609D02*
X126022827Y-93885990D01*
X126022827Y-93885990D02*
X126165684Y-93885990D01*
X126165684Y-93885990D02*
X126260922Y-93933609D01*
X126260922Y-93933609D02*
X126308541Y-93981228D01*
X126308541Y-93981228D02*
X126356160Y-94076466D01*
X126356160Y-94076466D02*
X126356160Y-94457418D01*
X126832351Y-93314561D02*
X126784732Y-93409799D01*
X126784732Y-93409799D02*
X126737112Y-93457418D01*
X126737112Y-93457418D02*
X126641874Y-93505037D01*
X126641874Y-93505037D02*
X126356160Y-93505037D01*
X126356160Y-93505037D02*
X126260922Y-93457418D01*
X126260922Y-93457418D02*
X126213303Y-93409799D01*
X126213303Y-93409799D02*
X126165684Y-93314561D01*
X126165684Y-93314561D02*
X126165684Y-93171704D01*
X126165684Y-93171704D02*
X126213303Y-93076466D01*
X126213303Y-93076466D02*
X126260922Y-93028847D01*
X126260922Y-93028847D02*
X126356160Y-92981228D01*
X126356160Y-92981228D02*
X126641874Y-92981228D01*
X126641874Y-92981228D02*
X126737112Y-93028847D01*
X126737112Y-93028847D02*
X126784732Y-93076466D01*
X126784732Y-93076466D02*
X126832351Y-93171704D01*
X126832351Y-93171704D02*
X126832351Y-93314561D01*
X126165684Y-92647894D02*
X126832351Y-92457418D01*
X126832351Y-92457418D02*
X126356160Y-92266942D01*
X126356160Y-92266942D02*
X126832351Y-92076466D01*
X126832351Y-92076466D02*
X126165684Y-91885990D01*
X126784732Y-91124085D02*
X126832351Y-91219323D01*
X126832351Y-91219323D02*
X126832351Y-91409799D01*
X126832351Y-91409799D02*
X126784732Y-91505037D01*
X126784732Y-91505037D02*
X126689493Y-91552656D01*
X126689493Y-91552656D02*
X126308541Y-91552656D01*
X126308541Y-91552656D02*
X126213303Y-91505037D01*
X126213303Y-91505037D02*
X126165684Y-91409799D01*
X126165684Y-91409799D02*
X126165684Y-91219323D01*
X126165684Y-91219323D02*
X126213303Y-91124085D01*
X126213303Y-91124085D02*
X126308541Y-91076466D01*
X126308541Y-91076466D02*
X126403779Y-91076466D01*
X126403779Y-91076466D02*
X126499017Y-91552656D01*
X126832351Y-90647894D02*
X126165684Y-90647894D01*
X126356160Y-90647894D02*
X126260922Y-90600275D01*
X126260922Y-90600275D02*
X126213303Y-90552656D01*
X126213303Y-90552656D02*
X126165684Y-90457418D01*
X126165684Y-90457418D02*
X126165684Y-90362180D01*
X126927589Y-90266942D02*
X126927589Y-89505037D01*
X126832351Y-89266941D02*
X125832351Y-89266941D01*
X126165684Y-88790751D02*
X126832351Y-88790751D01*
X126260922Y-88790751D02*
X126213303Y-88743132D01*
X126213303Y-88743132D02*
X126165684Y-88647894D01*
X126165684Y-88647894D02*
X126165684Y-88505037D01*
X126165684Y-88505037D02*
X126213303Y-88409799D01*
X126213303Y-88409799D02*
X126308541Y-88362180D01*
X126308541Y-88362180D02*
X126832351Y-88362180D01*
X126832351Y-87362180D02*
X126832351Y-87933608D01*
X126832351Y-87647894D02*
X125832351Y-87647894D01*
X125832351Y-87647894D02*
X125975208Y-87743132D01*
X125975208Y-87743132D02*
X126070446Y-87838370D01*
X126070446Y-87838370D02*
X126118065Y-87933608D01*
X123365627Y-77140428D02*
X123365627Y-77949951D01*
X123365627Y-77949951D02*
X123413246Y-78045189D01*
X123413246Y-78045189D02*
X123460865Y-78092809D01*
X123460865Y-78092809D02*
X123556103Y-78140428D01*
X123556103Y-78140428D02*
X123746579Y-78140428D01*
X123746579Y-78140428D02*
X123841817Y-78092809D01*
X123841817Y-78092809D02*
X123889436Y-78045189D01*
X123889436Y-78045189D02*
X123937055Y-77949951D01*
X123937055Y-77949951D02*
X123937055Y-77140428D01*
X124318008Y-77140428D02*
X124937055Y-77140428D01*
X124937055Y-77140428D02*
X124603722Y-77521380D01*
X124603722Y-77521380D02*
X124746579Y-77521380D01*
X124746579Y-77521380D02*
X124841817Y-77568999D01*
X124841817Y-77568999D02*
X124889436Y-77616618D01*
X124889436Y-77616618D02*
X124937055Y-77711856D01*
X124937055Y-77711856D02*
X124937055Y-77949951D01*
X124937055Y-77949951D02*
X124889436Y-78045189D01*
X124889436Y-78045189D02*
X124841817Y-78092809D01*
X124841817Y-78092809D02*
X124746579Y-78140428D01*
X124746579Y-78140428D02*
X124460865Y-78140428D01*
X124460865Y-78140428D02*
X124365627Y-78092809D01*
X124365627Y-78092809D02*
X124318008Y-78045189D01*
X137365627Y-89638428D02*
X137365627Y-90447951D01*
X137365627Y-90447951D02*
X137413246Y-90543189D01*
X137413246Y-90543189D02*
X137460865Y-90590809D01*
X137460865Y-90590809D02*
X137556103Y-90638428D01*
X137556103Y-90638428D02*
X137746579Y-90638428D01*
X137746579Y-90638428D02*
X137841817Y-90590809D01*
X137841817Y-90590809D02*
X137889436Y-90543189D01*
X137889436Y-90543189D02*
X137937055Y-90447951D01*
X137937055Y-90447951D02*
X137937055Y-89638428D01*
X138937055Y-90638428D02*
X138365627Y-90638428D01*
X138651341Y-90638428D02*
X138651341Y-89638428D01*
X138651341Y-89638428D02*
X138556103Y-89781285D01*
X138556103Y-89781285D02*
X138460865Y-89876523D01*
X138460865Y-89876523D02*
X138365627Y-89924142D01*
X155892490Y-108585625D02*
X155892490Y-109395148D01*
X155892490Y-109395148D02*
X155940109Y-109490386D01*
X155940109Y-109490386D02*
X155987728Y-109538006D01*
X155987728Y-109538006D02*
X156082966Y-109585625D01*
X156082966Y-109585625D02*
X156273442Y-109585625D01*
X156273442Y-109585625D02*
X156368680Y-109538006D01*
X156368680Y-109538006D02*
X156416299Y-109490386D01*
X156416299Y-109490386D02*
X156463918Y-109395148D01*
X156463918Y-109395148D02*
X156463918Y-108585625D01*
X156892490Y-108680863D02*
X156940109Y-108633244D01*
X156940109Y-108633244D02*
X157035347Y-108585625D01*
X157035347Y-108585625D02*
X157273442Y-108585625D01*
X157273442Y-108585625D02*
X157368680Y-108633244D01*
X157368680Y-108633244D02*
X157416299Y-108680863D01*
X157416299Y-108680863D02*
X157463918Y-108776101D01*
X157463918Y-108776101D02*
X157463918Y-108871339D01*
X157463918Y-108871339D02*
X157416299Y-109014196D01*
X157416299Y-109014196D02*
X156844871Y-109585625D01*
X156844871Y-109585625D02*
X157463918Y-109585625D01*
X131460865Y-88793189D02*
X131413246Y-88840809D01*
X131413246Y-88840809D02*
X131270389Y-88888428D01*
X131270389Y-88888428D02*
X131175151Y-88888428D01*
X131175151Y-88888428D02*
X131032294Y-88840809D01*
X131032294Y-88840809D02*
X130937056Y-88745570D01*
X130937056Y-88745570D02*
X130889437Y-88650332D01*
X130889437Y-88650332D02*
X130841818Y-88459856D01*
X130841818Y-88459856D02*
X130841818Y-88316999D01*
X130841818Y-88316999D02*
X130889437Y-88126523D01*
X130889437Y-88126523D02*
X130937056Y-88031285D01*
X130937056Y-88031285D02*
X131032294Y-87936047D01*
X131032294Y-87936047D02*
X131175151Y-87888428D01*
X131175151Y-87888428D02*
X131270389Y-87888428D01*
X131270389Y-87888428D02*
X131413246Y-87936047D01*
X131413246Y-87936047D02*
X131460865Y-87983666D01*
X131841818Y-87983666D02*
X131889437Y-87936047D01*
X131889437Y-87936047D02*
X131984675Y-87888428D01*
X131984675Y-87888428D02*
X132222770Y-87888428D01*
X132222770Y-87888428D02*
X132318008Y-87936047D01*
X132318008Y-87936047D02*
X132365627Y-87983666D01*
X132365627Y-87983666D02*
X132413246Y-88078904D01*
X132413246Y-88078904D02*
X132413246Y-88174142D01*
X132413246Y-88174142D02*
X132365627Y-88316999D01*
X132365627Y-88316999D02*
X131794199Y-88888428D01*
X131794199Y-88888428D02*
X132413246Y-88888428D01*
D12*
X127992343Y-119418013D02*
X127192343Y-119418013D01*
X127192343Y-119418013D02*
X127763771Y-119206346D01*
X127763771Y-119206346D02*
X127192343Y-118994680D01*
X127192343Y-118994680D02*
X127992343Y-118994680D01*
X127992343Y-118692299D02*
X127459009Y-118692299D01*
X127192343Y-118692299D02*
X127230438Y-118722537D01*
X127230438Y-118722537D02*
X127268533Y-118692299D01*
X127268533Y-118692299D02*
X127230438Y-118662061D01*
X127230438Y-118662061D02*
X127192343Y-118692299D01*
X127192343Y-118692299D02*
X127268533Y-118692299D01*
X127954248Y-118117775D02*
X127992343Y-118178251D01*
X127992343Y-118178251D02*
X127992343Y-118299204D01*
X127992343Y-118299204D02*
X127954248Y-118359680D01*
X127954248Y-118359680D02*
X127916152Y-118389918D01*
X127916152Y-118389918D02*
X127839962Y-118420156D01*
X127839962Y-118420156D02*
X127611390Y-118420156D01*
X127611390Y-118420156D02*
X127535200Y-118389918D01*
X127535200Y-118389918D02*
X127497105Y-118359680D01*
X127497105Y-118359680D02*
X127459009Y-118299204D01*
X127459009Y-118299204D02*
X127459009Y-118178251D01*
X127459009Y-118178251D02*
X127497105Y-118117775D01*
X127992343Y-117845632D02*
X127459009Y-117845632D01*
X127611390Y-117845632D02*
X127535200Y-117815394D01*
X127535200Y-117815394D02*
X127497105Y-117785156D01*
X127497105Y-117785156D02*
X127459009Y-117724680D01*
X127459009Y-117724680D02*
X127459009Y-117664203D01*
X127992343Y-117361823D02*
X127954248Y-117422299D01*
X127954248Y-117422299D02*
X127916152Y-117452537D01*
X127916152Y-117452537D02*
X127839962Y-117482775D01*
X127839962Y-117482775D02*
X127611390Y-117482775D01*
X127611390Y-117482775D02*
X127535200Y-117452537D01*
X127535200Y-117452537D02*
X127497105Y-117422299D01*
X127497105Y-117422299D02*
X127459009Y-117361823D01*
X127459009Y-117361823D02*
X127459009Y-117271108D01*
X127459009Y-117271108D02*
X127497105Y-117210632D01*
X127497105Y-117210632D02*
X127535200Y-117180394D01*
X127535200Y-117180394D02*
X127611390Y-117150156D01*
X127611390Y-117150156D02*
X127839962Y-117150156D01*
X127839962Y-117150156D02*
X127916152Y-117180394D01*
X127916152Y-117180394D02*
X127954248Y-117210632D01*
X127954248Y-117210632D02*
X127992343Y-117271108D01*
X127992343Y-117271108D02*
X127992343Y-117361823D01*
X127954248Y-116605870D02*
X127992343Y-116666346D01*
X127992343Y-116666346D02*
X127992343Y-116787299D01*
X127992343Y-116787299D02*
X127954248Y-116847775D01*
X127954248Y-116847775D02*
X127916152Y-116878013D01*
X127916152Y-116878013D02*
X127839962Y-116908251D01*
X127839962Y-116908251D02*
X127611390Y-116908251D01*
X127611390Y-116908251D02*
X127535200Y-116878013D01*
X127535200Y-116878013D02*
X127497105Y-116847775D01*
X127497105Y-116847775D02*
X127459009Y-116787299D01*
X127459009Y-116787299D02*
X127459009Y-116666346D01*
X127459009Y-116666346D02*
X127497105Y-116605870D01*
X127992343Y-116243013D02*
X127954248Y-116303489D01*
X127954248Y-116303489D02*
X127916152Y-116333727D01*
X127916152Y-116333727D02*
X127839962Y-116363965D01*
X127839962Y-116363965D02*
X127611390Y-116363965D01*
X127611390Y-116363965D02*
X127535200Y-116333727D01*
X127535200Y-116333727D02*
X127497105Y-116303489D01*
X127497105Y-116303489D02*
X127459009Y-116243013D01*
X127459009Y-116243013D02*
X127459009Y-116152298D01*
X127459009Y-116152298D02*
X127497105Y-116091822D01*
X127497105Y-116091822D02*
X127535200Y-116061584D01*
X127535200Y-116061584D02*
X127611390Y-116031346D01*
X127611390Y-116031346D02*
X127839962Y-116031346D01*
X127839962Y-116031346D02*
X127916152Y-116061584D01*
X127916152Y-116061584D02*
X127954248Y-116091822D01*
X127954248Y-116091822D02*
X127992343Y-116152298D01*
X127992343Y-116152298D02*
X127992343Y-116243013D01*
X127459009Y-115759203D02*
X127992343Y-115759203D01*
X127535200Y-115759203D02*
X127497105Y-115728965D01*
X127497105Y-115728965D02*
X127459009Y-115668489D01*
X127459009Y-115668489D02*
X127459009Y-115577774D01*
X127459009Y-115577774D02*
X127497105Y-115517298D01*
X127497105Y-115517298D02*
X127573295Y-115487060D01*
X127573295Y-115487060D02*
X127992343Y-115487060D01*
X127459009Y-115275393D02*
X127459009Y-115033489D01*
X127192343Y-115184679D02*
X127878057Y-115184679D01*
X127878057Y-115184679D02*
X127954248Y-115154441D01*
X127954248Y-115154441D02*
X127992343Y-115093965D01*
X127992343Y-115093965D02*
X127992343Y-115033489D01*
X127992343Y-114821822D02*
X127459009Y-114821822D01*
X127611390Y-114821822D02*
X127535200Y-114791584D01*
X127535200Y-114791584D02*
X127497105Y-114761346D01*
X127497105Y-114761346D02*
X127459009Y-114700870D01*
X127459009Y-114700870D02*
X127459009Y-114640393D01*
X127992343Y-114338013D02*
X127954248Y-114398489D01*
X127954248Y-114398489D02*
X127916152Y-114428727D01*
X127916152Y-114428727D02*
X127839962Y-114458965D01*
X127839962Y-114458965D02*
X127611390Y-114458965D01*
X127611390Y-114458965D02*
X127535200Y-114428727D01*
X127535200Y-114428727D02*
X127497105Y-114398489D01*
X127497105Y-114398489D02*
X127459009Y-114338013D01*
X127459009Y-114338013D02*
X127459009Y-114247298D01*
X127459009Y-114247298D02*
X127497105Y-114186822D01*
X127497105Y-114186822D02*
X127535200Y-114156584D01*
X127535200Y-114156584D02*
X127611390Y-114126346D01*
X127611390Y-114126346D02*
X127839962Y-114126346D01*
X127839962Y-114126346D02*
X127916152Y-114156584D01*
X127916152Y-114156584D02*
X127954248Y-114186822D01*
X127954248Y-114186822D02*
X127992343Y-114247298D01*
X127992343Y-114247298D02*
X127992343Y-114338013D01*
X127992343Y-113763489D02*
X127954248Y-113823965D01*
X127954248Y-113823965D02*
X127878057Y-113854203D01*
X127878057Y-113854203D02*
X127192343Y-113854203D01*
X127992343Y-113430870D02*
X127954248Y-113491346D01*
X127954248Y-113491346D02*
X127878057Y-113521584D01*
X127878057Y-113521584D02*
X127192343Y-113521584D01*
X127954248Y-112947060D02*
X127992343Y-113007536D01*
X127992343Y-113007536D02*
X127992343Y-113128489D01*
X127992343Y-113128489D02*
X127954248Y-113188965D01*
X127954248Y-113188965D02*
X127878057Y-113219203D01*
X127878057Y-113219203D02*
X127573295Y-113219203D01*
X127573295Y-113219203D02*
X127497105Y-113188965D01*
X127497105Y-113188965D02*
X127459009Y-113128489D01*
X127459009Y-113128489D02*
X127459009Y-113007536D01*
X127459009Y-113007536D02*
X127497105Y-112947060D01*
X127497105Y-112947060D02*
X127573295Y-112916822D01*
X127573295Y-112916822D02*
X127649486Y-112916822D01*
X127649486Y-112916822D02*
X127725676Y-113219203D01*
X127992343Y-112644679D02*
X127459009Y-112644679D01*
X127611390Y-112644679D02*
X127535200Y-112614441D01*
X127535200Y-112614441D02*
X127497105Y-112584203D01*
X127497105Y-112584203D02*
X127459009Y-112523727D01*
X127459009Y-112523727D02*
X127459009Y-112463250D01*
X127992343Y-111918965D02*
X127992343Y-112281822D01*
X127992343Y-112100394D02*
X127192343Y-112100394D01*
X127192343Y-112100394D02*
X127306628Y-112160870D01*
X127306628Y-112160870D02*
X127382819Y-112221346D01*
X127382819Y-112221346D02*
X127420914Y-112281822D01*
D13*
X139825953Y-78022162D02*
X139825953Y-77022162D01*
X139825953Y-77022162D02*
X140064048Y-77022162D01*
X140064048Y-77022162D02*
X140206905Y-77069781D01*
X140206905Y-77069781D02*
X140302143Y-77165019D01*
X140302143Y-77165019D02*
X140349762Y-77260257D01*
X140349762Y-77260257D02*
X140397381Y-77450733D01*
X140397381Y-77450733D02*
X140397381Y-77593590D01*
X140397381Y-77593590D02*
X140349762Y-77784066D01*
X140349762Y-77784066D02*
X140302143Y-77879304D01*
X140302143Y-77879304D02*
X140206905Y-77974543D01*
X140206905Y-77974543D02*
X140064048Y-78022162D01*
X140064048Y-78022162D02*
X139825953Y-78022162D01*
X141349762Y-78022162D02*
X140778334Y-78022162D01*
X141064048Y-78022162D02*
X141064048Y-77022162D01*
X141064048Y-77022162D02*
X140968810Y-77165019D01*
X140968810Y-77165019D02*
X140873572Y-77260257D01*
X140873572Y-77260257D02*
X140778334Y-77307876D01*
D10*
X152987112Y-73350275D02*
X153034732Y-73397894D01*
X153034732Y-73397894D02*
X153082351Y-73540751D01*
X153082351Y-73540751D02*
X153082351Y-73635989D01*
X153082351Y-73635989D02*
X153034732Y-73778846D01*
X153034732Y-73778846D02*
X152939493Y-73874084D01*
X152939493Y-73874084D02*
X152844255Y-73921703D01*
X152844255Y-73921703D02*
X152653779Y-73969322D01*
X152653779Y-73969322D02*
X152510922Y-73969322D01*
X152510922Y-73969322D02*
X152320446Y-73921703D01*
X152320446Y-73921703D02*
X152225208Y-73874084D01*
X152225208Y-73874084D02*
X152129970Y-73778846D01*
X152129970Y-73778846D02*
X152082351Y-73635989D01*
X152082351Y-73635989D02*
X152082351Y-73540751D01*
X152082351Y-73540751D02*
X152129970Y-73397894D01*
X152129970Y-73397894D02*
X152177589Y-73350275D01*
X152415684Y-72493132D02*
X153082351Y-72493132D01*
X152034732Y-72731227D02*
X152749017Y-72969322D01*
X152749017Y-72969322D02*
X152749017Y-72350275D01*
D14*
%TO.C,U35*%
X153127532Y-117643609D02*
G75*
G02*
X149627532Y-117643609I-1750000J0D01*
G01*
X149627532Y-117643609D02*
G75*
G02*
X153127532Y-117643609I1750000J0D01*
G01*
%TO.C,C6*%
X157016280Y-80223609D02*
X159338784Y-80223609D01*
X157016280Y-83643609D02*
X159338784Y-83643609D01*
%TO.C,RSENSE1*%
X144267532Y-85469045D02*
X144267532Y-88523173D01*
X146987532Y-85469045D02*
X146987532Y-88523173D01*
%TO.C,R3*%
X165249886Y-91727772D02*
X165249886Y-90273644D01*
X167069886Y-91727772D02*
X167069886Y-90273644D01*
%TO.C,R1*%
X136062968Y-96698609D02*
X136517096Y-96698609D01*
X136062968Y-98168609D02*
X136517096Y-98168609D01*
%TO.C,U26*%
X135702216Y-99556793D02*
X139822216Y-99556793D01*
X135702216Y-99651793D02*
X135702216Y-99556793D01*
X135702216Y-104676793D02*
X135702216Y-104581793D01*
X139822216Y-99556793D02*
X139822216Y-99651793D01*
X139822216Y-104581793D02*
X139822216Y-104676793D01*
X139822216Y-104676793D02*
X135702216Y-104676793D01*
X140602216Y-104916793D02*
X140122216Y-104916793D01*
X140362216Y-104586793D01*
X140602216Y-104916793D01*
G36*
X140602216Y-104916793D02*
G01*
X140122216Y-104916793D01*
X140362216Y-104586793D01*
X140602216Y-104916793D01*
G37*
D15*
%TO.C,L1*%
X132522846Y-61495328D02*
X135522846Y-61495328D01*
X132522846Y-73495328D02*
X132522846Y-61495328D01*
X135522846Y-73495328D02*
X132522846Y-73495328D01*
X141522846Y-61495328D02*
X144522846Y-61495328D01*
X144522846Y-61495328D02*
X144522846Y-73495328D01*
X144522846Y-73495328D02*
X141522846Y-73495328D01*
D14*
%TO.C,J2*%
X168572532Y-93903609D02*
X168572532Y-101583609D01*
X168572532Y-93903609D02*
X171232532Y-93903609D01*
X168572532Y-101583609D02*
X171232532Y-101583609D01*
X169902532Y-91303609D02*
X171232532Y-91303609D01*
X171232532Y-91303609D02*
X171232532Y-92633609D01*
X171232532Y-93903609D02*
X171232532Y-101583609D01*
%TO.C,R2*%
X148604596Y-96698609D02*
X148150468Y-96698609D01*
X148604596Y-98168609D02*
X148150468Y-98168609D01*
%TO.C,R5*%
X158408251Y-116963363D02*
X157954123Y-116963363D01*
X158408251Y-118433363D02*
X157954123Y-118433363D01*
%TO.C,U7*%
X169077532Y-62183609D02*
G75*
G02*
X166677532Y-62183609I-1200000J0D01*
G01*
X166677532Y-62183609D02*
G75*
G02*
X169077532Y-62183609I1200000J0D01*
G01*
%TO.C,T1*%
X133017532Y-80243609D02*
X143237532Y-80243609D01*
X133017532Y-81623609D02*
X143237532Y-81623609D01*
X133017532Y-84863609D02*
X133017532Y-80243609D01*
X136277532Y-80243609D02*
X136277532Y-81623609D01*
X139977532Y-80243609D02*
X139977532Y-81623609D01*
X143237532Y-80243609D02*
X143237532Y-84863609D01*
X143237532Y-84863609D02*
X133017532Y-84863609D01*
%TO.C,C1*%
X122861126Y-60066908D02*
X122861126Y-62416908D01*
X122861126Y-66886908D02*
X122861126Y-64536908D01*
X128616689Y-60066908D02*
X122861126Y-60066908D01*
X128616689Y-66886908D02*
X122861126Y-66886908D01*
X129681126Y-61131345D02*
X128616689Y-60066908D01*
X129681126Y-61131345D02*
X129681126Y-62416908D01*
X129681126Y-65822471D02*
X128616689Y-66886908D01*
X129681126Y-65822471D02*
X129681126Y-64536908D01*
X130314876Y-65718158D02*
X130314876Y-64930658D01*
X130708626Y-65324408D02*
X129921126Y-65324408D01*
%TO.C,R11*%
X165710333Y-101616670D02*
X165710333Y-103070798D01*
X167530333Y-101616670D02*
X167530333Y-103070798D01*
%TO.C,C5*%
X128429479Y-90649205D02*
X128429479Y-92071709D01*
X130249479Y-90649205D02*
X130249479Y-92071709D01*
%TO.C,Power_In1*%
X122572532Y-90703609D02*
X122572532Y-93303609D01*
X122572532Y-90703609D02*
X125232532Y-90703609D01*
X122572532Y-93303609D02*
X125232532Y-93303609D01*
X123902532Y-88103609D02*
X125232532Y-88103609D01*
X125232532Y-88103609D02*
X125232532Y-89433609D01*
X125232532Y-90703609D02*
X125232532Y-93303609D01*
%TO.C,U3*%
X125327532Y-79683609D02*
G75*
G02*
X122927532Y-79683609I-1200000J0D01*
G01*
X122927532Y-79683609D02*
G75*
G02*
X125327532Y-79683609I1200000J0D01*
G01*
%TO.C,U1*%
X135862532Y-85803609D02*
X135862532Y-96083609D01*
X135862532Y-96083609D02*
X140362532Y-96083609D01*
X137112532Y-85803609D02*
X135862532Y-85803609D01*
X140362532Y-85803609D02*
X139112532Y-85803609D01*
X140362532Y-96083609D02*
X140362532Y-85803609D01*
X139112532Y-85803609D02*
G75*
G02*
X137112532Y-85803609I-1000000J0D01*
G01*
%TO.C,U2*%
X148844395Y-105270806D02*
X149134395Y-105270806D01*
X148844395Y-112990806D02*
X148844395Y-105270806D01*
X149134395Y-112990806D02*
X148844395Y-112990806D01*
X164174395Y-105270806D02*
X164464395Y-105270806D01*
X164464395Y-105270806D02*
X164464395Y-112990806D01*
X164464395Y-112990806D02*
X164174395Y-112990806D01*
X149134395Y-113780806D02*
X148664395Y-114120806D01*
X148664395Y-113440806D01*
X149134395Y-113780806D01*
G36*
X149134395Y-113780806D02*
G01*
X148664395Y-114120806D01*
X148664395Y-113440806D01*
X149134395Y-113780806D01*
G37*
%TO.C,R8*%
X164343306Y-97911710D02*
X164343306Y-96457582D01*
X166163306Y-97911710D02*
X166163306Y-96457582D01*
%TO.C,C2*%
X130925506Y-90503594D02*
X130925506Y-91026098D01*
X132395506Y-90503594D02*
X132395506Y-91026098D01*
%TO.C,U6*%
X134464220Y-77433609D02*
G75*
G02*
X132064220Y-77433609I-1200000J0D01*
G01*
X132064220Y-77433609D02*
G75*
G02*
X134464220Y-77433609I1200000J0D01*
G01*
%TO.C,SW2*%
X122457532Y-84303609D02*
X122457532Y-87063609D01*
X127647532Y-84303609D02*
X122457532Y-84303609D01*
X127647532Y-84303609D02*
X127647532Y-87063609D01*
X127647532Y-87063609D02*
X122457532Y-87063609D01*
X128917532Y-84303609D02*
X130297532Y-84303609D01*
X130297532Y-84303609D02*
X130297532Y-85683609D01*
D16*
%TO.C,Microcontroller1*%
X123895032Y-119674881D02*
X123895032Y-111679609D01*
X124395032Y-111179609D02*
X125405032Y-111179609D01*
D15*
X125405032Y-108698609D02*
X125405032Y-122668609D01*
D16*
X125405032Y-108698609D02*
X125405032Y-122668609D01*
X125405032Y-120178609D02*
X124394760Y-120174881D01*
X144455032Y-106793609D02*
X127310032Y-106793609D01*
X144455032Y-124573609D02*
X127310032Y-124573609D01*
X146360032Y-122668609D02*
X146360032Y-108698609D01*
X123895032Y-111679609D02*
G75*
G02*
X124395032Y-111179609I500100J-100D01*
G01*
X124394760Y-120174881D02*
G75*
G02*
X123895060Y-119674881I272J499972D01*
G01*
X125405032Y-108698609D02*
G75*
G02*
X127310032Y-106793609I1905000J0D01*
G01*
X127310032Y-124573609D02*
G75*
G02*
X125405032Y-122668609I0J1905000D01*
G01*
X144455032Y-106793609D02*
G75*
G02*
X146360032Y-108698609I-1J-1905001D01*
G01*
X146360032Y-122668609D02*
G75*
G02*
X144455032Y-124573609I-1905001J1D01*
G01*
D17*
X125798032Y-124533609D02*
G75*
G02*
X125294032Y-124533609I-252000J0D01*
G01*
X125294032Y-124533609D02*
G75*
G02*
X125798032Y-124533609I252000J0D01*
G01*
X126678032Y-123390609D02*
G75*
G02*
X126174032Y-123390609I-252000J0D01*
G01*
X126174032Y-123390609D02*
G75*
G02*
X126678032Y-123390609I252000J0D01*
G01*
D14*
%TO.C,R4*%
X161253381Y-95011846D02*
X161253381Y-96465974D01*
X163073381Y-95011846D02*
X163073381Y-96465974D01*
D18*
%TO.C,D1*%
X137864048Y-79382543D02*
X143839048Y-79382543D01*
X143264048Y-75762543D02*
X137864048Y-75762543D01*
D14*
%TO.C,C4*%
X147267532Y-67823609D02*
X151117532Y-67823609D01*
X147267532Y-77479172D02*
X147267532Y-67823609D01*
X148331969Y-78543609D02*
X147267532Y-77479172D01*
X148331969Y-78543609D02*
X151117532Y-78543609D01*
X149242532Y-79408609D02*
X150492532Y-79408609D01*
X149867532Y-80033609D02*
X149867532Y-78783609D01*
X156923095Y-78543609D02*
X154137532Y-78543609D01*
X156923095Y-78543609D02*
X157987532Y-77479172D01*
X157987532Y-67823609D02*
X154137532Y-67823609D01*
X157987532Y-77479172D02*
X157987532Y-67823609D01*
%TO.C,Power_In2*%
X122522532Y-98413609D02*
X122522532Y-95813609D01*
X122522532Y-101013609D02*
X122522532Y-99683609D01*
X123852532Y-101013609D02*
X122522532Y-101013609D01*
X125182532Y-95813609D02*
X122522532Y-95813609D01*
X125182532Y-98413609D02*
X122522532Y-98413609D01*
X125182532Y-98413609D02*
X125182532Y-95813609D01*
%TO.C,C3*%
X143962598Y-94954287D02*
X143962598Y-94431783D01*
X145432598Y-94954287D02*
X145432598Y-94431783D01*
%TO.C,R_pot_sub1*%
X131767096Y-96698609D02*
X131312968Y-96698609D01*
X131767096Y-98168609D02*
X131312968Y-98168609D01*
%TD*%
M02*
