M48
; DRILL file {KiCad 9.0.5} date 2026-04-22T15:44:18+0100
; FORMAT={-:-/ absolute / metric / decimal}
; #@! TF.CreationDate,2026-04-22T15:44:18+01:00
; #@! TF.GenerationSoftware,Kicad,Pcbnew,9.0.5
; #@! TF.FileFunction,NonPlated,1,2,NPTH
FMAT,2
METRIC
; #@! TA.AperFunction,NonPlated,NPTH,ComponentDrill
T1C0.500
; #@! TA.AperFunction,NonPlated,NPTH,ComponentDrill
T2C3.200
%
G90
G05
T1
X119.378Y-67.434
X119.378Y-68.184
X119.378Y-68.934
X119.378Y-99.434
X119.378Y-100.184
X119.378Y-100.934
X120.878Y-67.434
X120.878Y-68.184
X120.878Y-68.934
X120.878Y-99.434
X120.878Y-100.184
X120.878Y-100.934
X131.378Y-127.184
X131.378Y-128.684
X132.128Y-127.184
X132.128Y-128.684
X132.878Y-127.184
X132.878Y-128.684
X147.378Y-56.184
X147.378Y-57.684
X148.128Y-56.184
X148.128Y-57.684
X148.878Y-56.184
X148.878Y-57.684
X158.378Y-127.184
X158.378Y-128.684
X159.128Y-127.184
X159.128Y-128.684
X159.878Y-127.184
X159.878Y-128.684
X173.128Y-67.684
X173.128Y-68.434
X173.128Y-69.184
X173.128Y-112.184
X173.128Y-112.934
X173.128Y-113.684
X174.628Y-67.684
X174.628Y-68.434
X174.628Y-69.184
X174.628Y-112.184
X174.628Y-112.934
X174.628Y-113.684
T2
X104.378Y-62.434
X104.378Y-73.434
X104.628Y-94.434
X104.628Y-105.434
X126.378Y-143.434
X137.378Y-143.434
X142.878Y-41.434
X153.378Y-143.434
X153.878Y-41.434
X164.328Y-143.434
X189.378Y-63.434
X189.378Y-74.434
X189.378Y-107.434
X189.378Y-118.434
M30
