%TF.GenerationSoftware,KiCad,Pcbnew,9.0.5*%
%TF.CreationDate,2026-04-22T15:43:52+01:00*%
%TF.ProjectId,EWOD,45574f44-2e6b-4696-9361-645f70636258,7*%
%TF.SameCoordinates,Original*%
%TF.FileFunction,Soldermask,Bot*%
%TF.FilePolarity,Negative*%
%FSLAX46Y46*%
G04 Gerber Fmt 4.6, Leading zero omitted, Abs format (unit mm)*
G04 Created by KiCad (PCBNEW 9.0.5) date 2026-04-22 15:43:52*
%MOMM*%
%LPD*%
G01*
G04 APERTURE LIST*
%ADD10C,3.200000*%
%ADD11R,1.700000X1.700000*%
%ADD12C,1.700000*%
%ADD13C,0.500000*%
%ADD14R,1.905000X2.000000*%
%ADD15O,1.905000X2.000000*%
%ADD16R,2.400000X1.600000*%
%ADD17O,2.400000X1.600000*%
%ADD18C,1.524000*%
G04 APERTURE END LIST*
D10*
%TO.C,H9*%
X104627532Y-105433609D03*
%TD*%
%TO.C,H16*%
X137377532Y-143433609D03*
%TD*%
D11*
%TO.C,J2*%
X169902532Y-92633609D03*
D12*
X169902532Y-95173609D03*
X169902532Y-97713609D03*
X169902532Y-100253609D03*
%TD*%
D13*
%TO.C,H7*%
X119377532Y-68933609D03*
X120877532Y-68933609D03*
X119377532Y-68183609D03*
X120877532Y-68183609D03*
X119377532Y-67433609D03*
X120877532Y-67433609D03*
%TD*%
D10*
%TO.C,H15*%
X126377532Y-143433609D03*
%TD*%
%TO.C,H12*%
X189377532Y-118433609D03*
%TD*%
D14*
%TO.C,T1*%
X135587532Y-83503609D03*
D15*
X138127532Y-83503609D03*
X140667532Y-83503609D03*
%TD*%
D10*
%TO.C,H8*%
X189377532Y-63433609D03*
%TD*%
D13*
%TO.C,H3*%
X147377532Y-56183609D03*
X147377532Y-57683609D03*
X148127532Y-56183609D03*
X148127532Y-57683609D03*
X148877532Y-56183609D03*
X148877532Y-57683609D03*
%TD*%
D10*
%TO.C,H21*%
X164327532Y-143433609D03*
%TD*%
%TO.C,H19*%
X153877532Y-41433609D03*
%TD*%
D11*
%TO.C,Power_In1*%
X123902532Y-89433609D03*
D12*
X123902532Y-91973609D03*
%TD*%
D10*
%TO.C,H20*%
X153377532Y-143433609D03*
%TD*%
D16*
%TO.C,U1*%
X134302532Y-87133609D03*
D17*
X134302532Y-89673609D03*
X134302532Y-92213609D03*
X134302532Y-94753609D03*
X141922532Y-94753609D03*
X141922532Y-92213609D03*
X141922532Y-89673609D03*
X141922532Y-87133609D03*
%TD*%
D10*
%TO.C,H13*%
X189377532Y-74433609D03*
%TD*%
%TO.C,H11*%
X104377532Y-73433609D03*
%TD*%
D13*
%TO.C,H2*%
X173127532Y-113683609D03*
X174627532Y-113683609D03*
X173127532Y-112933609D03*
X174627532Y-112933609D03*
X173127532Y-112183609D03*
X174627532Y-112183609D03*
%TD*%
D11*
%TO.C,SW2*%
X128917532Y-85683609D03*
D12*
X126377532Y-85683609D03*
X123837532Y-85683609D03*
%TD*%
D18*
%TO.C,Microcontroller1*%
X128326032Y-123303609D03*
X130866032Y-123303609D03*
X133406032Y-123303609D03*
X135946032Y-123303609D03*
X138486032Y-123303609D03*
X141026032Y-123303609D03*
X143566032Y-123303609D03*
X143566032Y-108063609D03*
X141026032Y-108063609D03*
X138486032Y-108063609D03*
X135946032Y-108063609D03*
X133406032Y-108063609D03*
X130866032Y-108063609D03*
X128326032Y-108063609D03*
%TD*%
D13*
%TO.C,H1*%
X173127532Y-69183609D03*
X174627532Y-69183609D03*
X173127532Y-68433609D03*
X174627532Y-68433609D03*
X173127532Y-67683609D03*
X174627532Y-67683609D03*
%TD*%
D10*
%TO.C,H17*%
X189377532Y-107433609D03*
%TD*%
%TO.C,H18*%
X142877532Y-41433609D03*
%TD*%
%TO.C,H10*%
X104377532Y-62433609D03*
%TD*%
%TO.C,H14*%
X104627532Y-94433609D03*
%TD*%
D13*
%TO.C,H6*%
X119377532Y-100933609D03*
X120877532Y-100933609D03*
X119377532Y-100183609D03*
X120877532Y-100183609D03*
X119377532Y-99433609D03*
X120877532Y-99433609D03*
%TD*%
D11*
%TO.C,Power_In2*%
X123852532Y-99683609D03*
D12*
X123852532Y-97143609D03*
%TD*%
D13*
%TO.C,H4*%
X158377532Y-127183609D03*
X158377532Y-128683609D03*
X159127532Y-127183609D03*
X159127532Y-128683609D03*
X159877532Y-127183609D03*
X159877532Y-128683609D03*
%TD*%
%TO.C,H5*%
X131377532Y-127183609D03*
X131377532Y-128683609D03*
X132127532Y-127183609D03*
X132127532Y-128683609D03*
X132877532Y-127183609D03*
X132877532Y-128683609D03*
%TD*%
D11*
%TO.C,J1*%
X177102532Y-64383609D03*
D12*
X177102532Y-66923609D03*
X177102532Y-69463609D03*
X177102532Y-72003609D03*
%TD*%
D11*
%TO.C,J7*%
X116627532Y-105013609D03*
D12*
X116627532Y-102473609D03*
X116627532Y-99933609D03*
X116627532Y-97393609D03*
X116627532Y-94853609D03*
%TD*%
D11*
%TO.C,J10*%
X128327532Y-131208609D03*
D12*
X130867532Y-131208609D03*
X133407532Y-131208609D03*
X135947532Y-131208609D03*
%TD*%
D11*
%TO.C,J9*%
X144077532Y-53458609D03*
D12*
X146617532Y-53458609D03*
X149157532Y-53458609D03*
X151697532Y-53458609D03*
%TD*%
D11*
%TO.C,J8*%
X115984511Y-71748696D03*
D12*
X115984511Y-69208696D03*
X115984511Y-66668696D03*
X115984511Y-64128696D03*
%TD*%
D11*
%TO.C,J12*%
X155327532Y-131458609D03*
D12*
X157867532Y-131458609D03*
X160407532Y-131458609D03*
X162947532Y-131458609D03*
%TD*%
D11*
%TO.C,J11*%
X177352532Y-109383609D03*
D12*
X177352532Y-111923609D03*
X177352532Y-114463609D03*
X177352532Y-117003609D03*
%TD*%
M02*
