M48
; DRILL file {KiCad 9.0.5} date 2026-04-22T15:44:18+0100
; FORMAT={-:-/ absolute / metric / decimal}
; #@! TF.CreationDate,2026-04-22T15:44:18+01:00
; #@! TF.GenerationSoftware,Kicad,Pcbnew,9.0.5
; #@! TF.FileFunction,Plated,1,2,PTH
FMAT,2
METRIC
; #@! TA.AperFunction,Plated,PTH,ViaDrill
T1C0.250
; #@! TA.AperFunction,Plated,PTH,ViaDrill
T2C0.300
; #@! TA.AperFunction,Plated,PTH,ComponentDrill
T3C0.800
; #@! TA.AperFunction,Plated,PTH,ComponentDrill
T4C0.889
; #@! TA.AperFunction,Plated,PTH,ComponentDrill
T5C1.000
; #@! TA.AperFunction,Plated,PTH,ComponentDrill
T6C1.100
%
G90
G05
T1
X110.627Y-95.934
X110.627Y-98.684
X110.627Y-101.434
X110.627Y-104.184
X110.7Y-61.309
X110.7Y-65.739
X110.7Y-70.169
X110.7Y-74.599
X113.378Y-99.434
X113.378Y-100.434
X122.128Y-61.934
X122.128Y-65.184
X127.208Y-92.754
X129.284Y-136.684
X130.737Y-95.974
X130.738Y-94.224
X131.081Y-136.684
X131.698Y-93.354
X132.878Y-136.684
X134.674Y-136.684
X136.378Y-91.434
X138.128Y-96.184
X142.422Y-105.667
X142.988Y-47.434
X144.628Y-91.434
X144.628Y-92.184
X145.378Y-91.434
X145.378Y-92.184
X146.128Y-91.434
X146.128Y-92.184
X146.628Y-47.434
X146.878Y-91.434
X146.878Y-92.184
X146.878Y-93.434
X146.878Y-94.184
X150.253Y-47.434
X153.878Y-47.434
X155.313Y-66.824
X155.313Y-68.574
X155.313Y-70.574
X156.02Y-136.684
X156.063Y-67.824
X156.063Y-69.574
X157.063Y-66.824
X157.063Y-68.574
X157.063Y-70.574
X157.949Y-136.684
X159.094Y-119.374
X159.878Y-136.684
X160.378Y-79.434
X160.398Y-98.354
X160.488Y-117.698
X161.378Y-79.434
X161.807Y-136.684
X162.228Y-98.331
X162.358Y-111.714
X162.378Y-79.434
X162.378Y-80.434
X162.378Y-81.434
X162.378Y-82.434
X162.378Y-106.574
X162.378Y-115.744
X163.618Y-106.634
X163.838Y-95.704
X164.328Y-89.604
X164.7Y-104.481
X166.198Y-88.014
X166.558Y-105.534
X167.118Y-95.764
X167.878Y-62.184
X168.758Y-103.924
X182.628Y-64.047
X182.628Y-66.797
X182.628Y-69.547
X182.628Y-72.297
X183.378Y-109.069
X183.378Y-111.869
X183.378Y-114.684
X183.378Y-117.49
T2
X130.628Y-98.934
X133.208Y-102.694
X138.378Y-100.212
X141.879Y-102.18
X142.128Y-100.214
X156.228Y-120.094
X161.168Y-115.894
T3
X134.303Y-87.134
X134.303Y-89.674
X134.303Y-92.214
X134.303Y-94.754
X141.923Y-87.134
X141.923Y-89.674
X141.923Y-92.214
X141.923Y-94.754
T4
X128.326Y-108.064
X128.326Y-123.304
X130.866Y-108.064
X130.866Y-123.304
X133.406Y-108.064
X133.406Y-123.304
X135.946Y-108.064
X135.946Y-123.304
X138.486Y-108.064
X138.486Y-123.304
X141.026Y-108.064
X141.026Y-123.304
X143.566Y-108.064
X143.566Y-123.304
T5
X115.985Y-64.129
X115.985Y-66.669
X115.985Y-69.209
X115.985Y-71.749
X116.628Y-94.854
X116.628Y-97.394
X116.628Y-99.934
X116.628Y-102.474
X116.628Y-105.014
X123.838Y-85.684
X123.853Y-97.144
X123.853Y-99.684
X123.903Y-89.434
X123.903Y-91.974
X126.378Y-85.684
X128.328Y-131.209
X128.918Y-85.684
X130.868Y-131.209
X133.408Y-131.209
X135.948Y-131.209
X144.078Y-53.459
X146.618Y-53.459
X149.158Y-53.459
X151.698Y-53.459
X155.328Y-131.459
X157.868Y-131.459
X160.408Y-131.459
X162.948Y-131.459
X169.903Y-92.634
X169.903Y-95.174
X169.903Y-97.714
X169.903Y-100.254
X177.103Y-64.384
X177.103Y-66.924
X177.103Y-69.464
X177.103Y-72.004
X177.353Y-109.384
X177.353Y-111.924
X177.353Y-114.464
X177.353Y-117.004
T6
X135.588Y-83.504
X138.128Y-83.504
X140.668Y-83.504
M30
