%TF.GenerationSoftware,KiCad,Pcbnew,9.0.5*%
%TF.CreationDate,2026-04-22T15:43:52+01:00*%
%TF.ProjectId,EWOD,45574f44-2e6b-4696-9361-645f70636258,7*%
%TF.SameCoordinates,Original*%
%TF.FileFunction,Paste,Top*%
%TF.FilePolarity,Positive*%
%FSLAX46Y46*%
G04 Gerber Fmt 4.6, Leading zero omitted, Abs format (unit mm)*
G04 Created by KiCad (PCBNEW 9.0.5) date 2026-04-22 15:43:52*
%MOMM*%
%LPD*%
G01*
G04 APERTURE LIST*
G04 Aperture macros list*
%AMRoundRect*
0 Rectangle with rounded corners*
0 $1 Rounding radius*
0 $2 $3 $4 $5 $6 $7 $8 $9 X,Y pos of 4 corners*
0 Add a 4 corners polygon primitive as box body*
4,1,4,$2,$3,$4,$5,$6,$7,$8,$9,$2,$3,0*
0 Add four circle primitives for the rounded corners*
1,1,$1+$1,$2,$3*
1,1,$1+$1,$4,$5*
1,1,$1+$1,$6,$7*
1,1,$1+$1,$8,$9*
0 Add four rect primitives between the rounded corners*
20,1,$1+$1,$2,$3,$4,$5,0*
20,1,$1+$1,$4,$5,$6,$7,0*
20,1,$1+$1,$6,$7,$8,$9,0*
20,1,$1+$1,$8,$9,$2,$3,0*%
%AMFreePoly0*
4,1,132,0.765090,2.587330,0.779731,2.552646,0.783255,2.289862,0.888639,2.189129,0.901658,2.168390,0.913310,2.132411,0.913299,2.101568,0.901628,2.065616,0.888601,2.044892,0.604343,1.773465,0.888601,1.502040,0.901652,1.481241,0.913328,1.445079,0.913328,1.414353,0.901652,1.378191,0.888601,1.357392,0.603033,1.084716,0.888601,0.812040,0.901652,0.791241,0.913328,0.755079,
0.913328,0.724353,0.901652,0.688191,0.888601,0.667392,0.603033,0.394716,0.888601,0.122040,0.901652,0.101241,0.913328,0.065079,0.913328,0.034353,0.901652,-0.001809,0.888767,-0.022448,0.604486,-0.296418,0.888866,-0.567960,0.901917,-0.588759,0.913593,-0.624921,0.913593,-0.655647,0.901917,-0.691809,0.888866,-0.712608,0.601357,-0.987137,0.888866,-1.261667,0.901917,-1.282466,
0.913593,-1.318628,0.913593,-1.349354,0.901917,-1.385516,0.888866,-1.406315,0.604608,-1.677740,0.888866,-1.949167,0.901917,-1.969966,0.913593,-2.006128,0.913593,-2.036854,0.901917,-2.073016,0.888866,-2.093815,0.604191,-2.365638,0.765198,-2.525220,0.780000,-2.560510,0.780000,-2.800000,0.765355,-2.835355,0.730000,-2.850000,-0.770000,-2.850000,-0.805355,-2.835355,-0.820000,-2.800000,
-0.820000,-2.581572,-0.991392,-2.411697,-1.006194,-2.376407,-1.006194,-2.354165,-0.991549,-2.318810,-0.990724,-2.318003,-0.689353,-2.030236,-0.686529,-2.021491,-0.689353,-2.012745,-0.990724,-1.724978,-1.006181,-1.689970,-1.006194,-1.688816,-1.006194,-1.666665,-0.991549,-1.631310,-0.990724,-1.630503,-0.689353,-1.342736,-0.686529,-1.333991,-0.689353,-1.325245,-0.990724,-1.037479,-1.006181,-1.002471,
-1.006194,-1.001317,-1.006194,-0.972958,-0.991549,-0.937603,-0.990724,-0.936796,-0.689353,-0.649029,-0.686529,-0.640284,-0.689353,-0.631538,-0.990724,-0.343772,-1.006181,-0.308764,-1.006194,-0.307610,-1.006194,-0.285459,-0.991549,-0.250104,-0.990890,-0.249457,-0.689656,0.040852,-0.686794,0.049716,-0.689618,0.058461,-0.990989,0.346228,-1.006446,0.381236,-1.006459,0.382390,-1.006459,0.407042,
-0.991814,0.442397,-0.990989,0.443204,-0.689618,0.730970,-0.686794,0.739716,-0.689618,0.748461,-0.990989,1.036228,-1.006446,1.071236,-1.006459,1.072390,-1.006459,1.097042,-0.991814,1.132397,-0.990989,1.133204,-0.689618,1.420970,-0.686794,1.429716,-0.689618,1.438461,-0.990989,1.726228,-1.006446,1.761236,-1.006459,1.762390,-1.006459,1.784541,-0.991814,1.819896,-0.990989,1.820703,
-0.689588,2.108498,-0.686820,2.117023,-0.689587,2.125566,-0.801008,2.232071,-0.816446,2.267087,-0.816455,2.267544,-0.820261,2.551304,-0.806091,2.586853,-0.770936,2.601971,-0.770265,2.601975,0.729735,2.601975,0.765090,2.587330,0.765090,2.587330,$1*%
%AMFreePoly1*
4,1,93,0.645399,1.889101,0.670711,1.870711,1.000000,1.541422,1.129289,1.670711,1.184357,1.698769,1.200000,1.700000,1.600000,1.700000,1.658779,1.680902,1.695106,1.630902,1.700000,1.600000,1.700000,1.241422,1.870711,1.070711,1.898769,1.015643,1.889101,0.954601,1.870711,0.929289,1.541422,0.600000,1.870711,0.270711,1.898769,0.215643,1.889101,0.154601,1.870711,0.129289,
1.541422,-0.200000,1.870711,-0.529289,1.898769,-0.584357,1.889101,-0.645399,1.870711,-0.670711,1.541422,-1.000000,1.670711,-1.129289,1.698769,-1.184357,1.700000,-1.200000,1.700000,-1.600000,1.680902,-1.658779,1.630902,-1.695106,1.600000,-1.700000,1.241422,-1.700000,1.070711,-1.870711,1.015643,-1.898769,0.954601,-1.889101,0.929289,-1.870711,0.600000,-1.541422,0.270711,-1.870711,
0.215643,-1.898769,0.154601,-1.889101,0.129289,-1.870711,-0.200000,-1.541422,-0.529289,-1.870711,-0.584357,-1.898769,-0.645399,-1.889101,-0.670711,-1.870711,-1.000000,-1.541422,-1.129289,-1.670711,-1.184357,-1.698769,-1.200000,-1.700000,-1.600000,-1.700000,-1.658779,-1.680902,-1.695106,-1.630902,-1.700000,-1.600000,-1.700000,-1.241422,-1.870711,-1.070711,-1.898769,-1.015643,-1.889101,-0.954601,
-1.870711,-0.929289,-1.541422,-0.600000,-1.870711,-0.270711,-1.898769,-0.215643,-1.889101,-0.154601,-1.870711,-0.129289,-1.541422,0.200000,-1.870711,0.529289,-1.898769,0.584357,-1.889101,0.645399,-1.870711,0.670711,-1.541422,1.000000,-1.670711,1.129289,-1.698769,1.184357,-1.700000,1.200000,-1.700000,1.600000,-1.680902,1.658779,-1.630902,1.695106,-1.600000,1.700000,-1.241422,1.700000,
-1.070711,1.870711,-1.015643,1.898769,-0.954601,1.889101,-0.929289,1.870711,-0.600000,1.541422,-0.270711,1.870711,-0.215643,1.898769,-0.154601,1.889101,-0.129289,1.870711,0.200000,1.541422,0.529289,1.870711,0.584357,1.898769,0.645399,1.889101,0.645399,1.889101,$1*%
%AMFreePoly2*
4,1,93,0.345399,0.939101,0.370711,0.920711,0.500000,0.791422,0.529289,0.820711,0.584357,0.848769,0.600000,0.850000,0.750000,0.850000,0.808779,0.830902,0.845106,0.780902,0.850000,0.750000,0.850000,0.641422,0.920711,0.570711,0.948769,0.515643,0.939101,0.454601,0.920711,0.429289,0.791422,0.300000,0.920711,0.170711,0.948769,0.115643,0.939101,0.054601,0.920711,0.029289,
0.791422,-0.100000,0.920711,-0.229289,0.948769,-0.284357,0.939101,-0.345399,0.920711,-0.370711,0.791422,-0.500000,0.820711,-0.529289,0.848769,-0.584357,0.850000,-0.600000,0.850000,-0.750000,0.830902,-0.808779,0.780902,-0.845106,0.750000,-0.850000,0.641422,-0.850000,0.570711,-0.920711,0.515643,-0.948769,0.454601,-0.939101,0.429289,-0.920711,0.300000,-0.791422,0.170711,-0.920711,
0.115643,-0.948769,0.054601,-0.939101,0.029289,-0.920711,-0.099999,-0.791422,-0.229289,-0.920711,-0.284357,-0.948769,-0.345399,-0.939101,-0.370711,-0.920711,-0.500000,-0.791422,-0.529289,-0.820711,-0.584357,-0.848769,-0.600000,-0.850000,-0.750000,-0.850000,-0.808779,-0.830902,-0.845106,-0.780902,-0.850000,-0.750000,-0.850000,-0.641422,-0.920711,-0.570711,-0.948769,-0.515643,-0.939101,-0.454601,
-0.920711,-0.429289,-0.791422,-0.300000,-0.920711,-0.170711,-0.948769,-0.115643,-0.939101,-0.054601,-0.920711,-0.029289,-0.791422,0.100000,-0.920711,0.229289,-0.948769,0.284357,-0.939101,0.345399,-0.920711,0.370711,-0.791422,0.500000,-0.820711,0.529289,-0.848769,0.584357,-0.850000,0.600000,-0.850000,0.750000,-0.830902,0.808779,-0.780902,0.845106,-0.750000,0.850000,-0.641422,0.850000,
-0.570711,0.920711,-0.515643,0.948769,-0.454601,0.939101,-0.429289,0.920711,-0.300000,0.791422,-0.170711,0.920711,-0.115643,0.948769,-0.054601,0.939101,-0.029289,0.920711,0.100000,0.791422,0.229289,0.920711,0.284357,0.948769,0.345399,0.939101,0.345399,0.939101,$1*%
%AMFreePoly3*
4,1,239,0.534582,1.456768,0.535821,1.456740,0.551787,1.445530,0.848299,1.135000,0.870320,1.135000,1.037927,1.309623,1.053923,1.320792,1.054475,1.320803,1.054866,1.321194,1.074000,1.325000,1.275000,1.325000,1.294134,1.321194,1.321194,1.294134,1.325000,1.275000,1.325000,1.010374,1.445549,0.895144,1.456750,0.879171,1.456768,0.878332,1.457623,0.877438,1.457201,0.859165,
1.457613,0.840912,1.456759,0.840019,1.456740,0.839179,1.445530,0.823213,1.135000,0.526700,1.135000,0.504549,1.445530,0.208037,1.456740,0.192071,1.456768,0.190832,1.457623,0.189938,1.457206,0.171875,1.457623,0.153812,1.456768,0.152917,1.456740,0.151679,1.445530,0.135713,1.135000,-0.160799,1.135000,-0.182950,1.445530,-0.479463,1.456740,-0.495429,1.456768,-0.496667,
1.457623,-0.497562,1.457206,-0.515625,1.457623,-0.533688,1.456768,-0.534582,1.456740,-0.535821,1.445530,-0.551787,1.135000,-0.848299,1.135000,-0.870319,1.309623,-1.037927,1.320792,-1.053923,1.320803,-1.054475,1.321194,-1.054866,1.325000,-1.074000,1.325000,-1.275000,1.321194,-1.294134,1.294134,-1.321194,1.275000,-1.325000,1.010374,-1.325000,0.895144,-1.445549,0.879171,-1.456751,
0.878331,-1.456769,0.877438,-1.457623,0.859186,-1.457201,0.840912,-1.457614,0.840017,-1.456759,0.839179,-1.456740,0.823213,-1.445530,0.526700,-1.135000,0.504550,-1.135000,0.208037,-1.445530,0.192071,-1.456740,0.190832,-1.456768,0.189938,-1.457623,0.171875,-1.457206,0.153812,-1.457623,0.152917,-1.456768,0.151679,-1.456740,0.135713,-1.445530,-0.160800,-1.135000,-0.022533,-1.135000,
-0.020474,-1.137156,-0.019478,-1.135000,-0.022533,-1.135000,-0.160800,-1.135000,-0.182950,-1.135000,-0.479463,-1.445530,-0.495429,-1.456740,-0.496667,-1.456768,-0.497562,-1.457623,-0.515625,-1.457206,-0.533688,-1.457623,-0.534582,-1.456768,-0.535821,-1.456740,-0.551787,-1.445530,-0.848299,-1.135000,-0.710032,-1.135000,-0.706607,-1.138587,-0.705121,-1.135000,-0.324876,-1.135000,-0.323769,-1.137673,
-0.321217,-1.135000,-0.324876,-1.135000,-0.705121,-1.135000,-0.710032,-1.135000,-0.848299,-1.135000,-0.870320,-1.135000,-1.037927,-1.309623,-1.053923,-1.320792,-1.054475,-1.320803,-1.054866,-1.321194,-1.074000,-1.325000,-1.275000,-1.325000,-1.294134,-1.321194,-1.321194,-1.294134,-1.325000,-1.275000,-1.325000,-1.010373,-1.445549,-0.895144,-1.456751,-0.879171,-1.456769,-0.878331,-1.457623,-0.877438,
-1.457201,-0.859186,-1.457614,-0.840912,-1.456759,-0.840017,-1.456740,-0.839179,-1.445530,-0.823213,-1.326999,-0.710032,1.135000,-0.710032,1.138587,-0.706607,1.135000,-0.705121,1.135000,-0.710032,-1.326999,-0.710032,-1.135000,-0.526700,-1.135000,-0.504549,-1.323166,-0.324877,1.135000,-0.324877,1.137674,-0.323770,1.135000,-0.321216,1.135000,-0.324877,-1.323166,-0.324877,-1.445530,-0.208037,
-1.456740,-0.192071,-1.456768,-0.190832,-1.457623,-0.189938,-1.457206,-0.171875,-1.457623,-0.153812,-1.456768,-0.152917,-1.456740,-0.151679,-1.445530,-0.135713,-1.326998,-0.022532,1.135000,-0.022532,1.137156,-0.020474,1.135000,-0.019478,1.135000,-0.022532,-1.326998,-0.022532,-1.281959,0.020474,-1.137156,0.020474,-1.135000,0.019478,-1.135000,0.022532,-1.137156,0.020474,-1.281959,0.020474,
-1.135000,0.160799,-1.135000,0.182950,-1.282476,0.323769,-1.137673,0.323769,-1.135000,0.321216,-1.135000,0.324876,-1.137673,0.323769,-1.282476,0.323769,-1.445530,0.479463,-1.456740,0.495429,-1.456768,0.496667,-1.457623,0.497562,-1.457206,0.515625,-1.457623,0.533688,-1.456768,0.534582,-1.456740,0.535821,-1.445530,0.551787,-1.283391,0.706607,-1.138587,0.706607,-1.135000,0.705121,
-1.135000,0.710032,-1.138587,0.706607,-1.283391,0.706607,-1.135000,0.848299,-1.135000,0.870319,-1.309623,1.037927,-1.320792,1.053923,-1.320803,1.054475,-1.321194,1.054866,-1.325000,1.074000,-1.325000,1.275000,-1.321194,1.294134,-1.294134,1.321194,-1.275000,1.325000,-1.010375,1.325000,-0.895144,1.445549,-0.879171,1.456750,-0.878332,1.456768,-0.877438,1.457623,-0.859165,1.457201,
-0.840912,1.457613,-0.840019,1.456759,-0.839179,1.456740,-0.823213,1.445530,-0.526700,1.135000,-0.504550,1.135000,0.019478,1.135000,0.022533,1.135000,0.020474,1.137156,0.019478,1.135000,-0.504550,1.135000,-0.208037,1.445530,-0.192071,1.456740,-0.190832,1.456768,-0.189938,1.457623,-0.171875,1.457206,-0.153812,1.457623,-0.152917,1.456768,-0.151679,1.456740,-0.135713,1.445530,
0.160800,1.135000,0.182950,1.135000,0.321217,1.135000,0.324878,1.135000,0.705121,1.135000,0.710032,1.135000,0.706607,1.138587,0.705121,1.135000,0.324878,1.135000,0.323770,1.137674,0.321217,1.135000,0.182950,1.135000,0.479463,1.445530,0.495429,1.456740,0.496667,1.456768,0.497562,1.457623,0.515625,1.457206,0.533688,1.457623,0.534582,1.456768,0.534582,1.456768,
$1*%
%AMFreePoly4*
4,1,93,-0.151557,1.477483,-0.131768,1.463106,0.101229,1.245641,0.333104,1.454329,0.389569,1.479455,0.450019,1.466591,0.466896,1.454329,0.698770,1.245641,0.781768,1.323106,0.837770,1.349249,0.850000,1.350000,1.140000,1.350000,1.198779,1.330902,1.235106,1.280902,1.240000,1.250000,1.240000,0.999544,1.362954,0.868394,1.389222,0.812451,1.377591,0.751752,1.363106,0.731768,
1.145641,0.498770,1.354329,0.266896,1.379455,0.210431,1.366591,0.149981,1.354329,0.133104,1.145641,-0.098770,1.363106,-0.331768,1.389249,-0.387770,1.377483,-0.448443,1.364329,-0.466896,1.153411,-0.701248,1.225569,-0.784507,1.249632,-0.841433,1.250000,-0.850000,1.250000,-1.130000,1.230902,-1.188779,1.180902,-1.225106,1.156652,-1.229779,0.890133,-1.247546,0.765493,-1.355569,
0.708567,-1.379632,0.648368,-1.365640,0.634507,-1.355569,0.400000,-1.152329,0.165493,-1.355569,0.108567,-1.379632,0.048368,-1.365640,0.034507,-1.355569,-0.200000,-1.152329,-0.434507,-1.355569,-0.491433,-1.379632,-0.551632,-1.365640,-0.565493,-1.355569,-0.802559,-1.150110,-0.887530,-1.218087,-0.945359,-1.239892,-0.950000,-1.240000,-1.250000,-1.240000,-1.308779,-1.220902,-1.345106,-1.170902,
-1.350000,-1.140000,-1.350000,-0.887303,-1.455569,-0.765493,-1.479632,-0.708567,-1.465640,-0.648368,-1.455569,-0.634507,-1.253411,-0.401248,-1.464329,-0.166896,-1.489455,-0.110431,-1.476591,-0.049981,-1.463106,-0.031768,-1.246789,0.200000,-1.463106,0.431768,-1.489249,0.487770,-1.477483,0.548443,-1.463106,0.568232,-1.246789,0.800000,-1.323106,0.881768,-1.349249,0.937770,-1.349941,0.953446,
-1.339941,1.243446,-1.318828,1.301532,-1.267606,1.336114,-1.240000,1.340000,-0.991422,1.340000,-0.870711,1.460711,-0.815643,1.488769,-0.754601,1.479101,-0.731768,1.463106,-0.500000,1.246789,-0.268232,1.463106,-0.212230,1.489249,-0.151557,1.477483,-0.151557,1.477483,$1*%
%AMFreePoly5*
4,1,93,0.545399,2.589101,0.570711,2.570711,1.000000,2.141422,1.179289,2.320711,1.234357,2.348769,1.250000,2.350000,1.750000,2.350000,1.808779,2.330902,1.845106,2.280902,1.850000,2.250000,1.850000,1.791422,2.320711,1.320711,2.348769,1.265643,2.339101,1.204601,2.320711,1.179289,1.891422,0.750000,2.320711,0.320711,2.348769,0.265643,2.339101,0.204601,2.320711,0.179289,
1.891422,-0.250000,2.320711,-0.679289,2.348769,-0.734357,2.339101,-0.795399,2.320711,-0.820711,1.891422,-1.250000,2.070711,-1.429289,2.098769,-1.484357,2.100000,-1.500000,2.100000,-2.000000,2.080902,-2.058779,2.030902,-2.095106,2.000000,-2.100000,1.541422,-2.100000,1.320711,-2.320711,1.265643,-2.348769,1.204601,-2.339101,1.179289,-2.320711,0.750000,-1.891422,0.320711,-2.320711,
0.265643,-2.348769,0.204601,-2.339101,0.179289,-2.320711,-0.250000,-1.891422,-0.679289,-2.320711,-0.734357,-2.348769,-0.795399,-2.339101,-0.820711,-2.320711,-1.250000,-1.891422,-1.429289,-2.070711,-1.484357,-2.098769,-1.500000,-2.100000,-2.000000,-2.100000,-2.058779,-2.080902,-2.095106,-2.030902,-2.100000,-2.000000,-2.100000,-1.541422,-2.320711,-1.320711,-2.348769,-1.265643,-2.339101,-1.204601,
-2.320711,-1.179289,-1.891422,-0.750000,-2.320711,-0.320711,-2.348769,-0.265643,-2.339101,-0.204601,-2.320711,-0.179289,-1.891422,0.250000,-2.320711,0.679289,-2.348769,0.734357,-2.339101,0.795399,-2.320711,0.820711,-1.891422,1.250000,-2.320711,1.679289,-2.348769,1.734357,-2.350000,1.750000,-2.350000,2.250000,-2.330902,2.308779,-2.280902,2.345106,-2.250000,2.350000,-1.791422,2.350000,
-1.570711,2.570711,-1.515643,2.598769,-1.454601,2.589101,-1.429289,2.570711,-1.000000,2.141422,-0.570711,2.570711,-0.515643,2.598769,-0.454601,2.589101,-0.429289,2.570711,0.000000,2.141422,0.429289,2.570711,0.484357,2.598769,0.545399,2.589101,0.545399,2.589101,$1*%
G04 Aperture macros list end*
%ADD10FreePoly0,180.000000*%
%ADD11FreePoly1,90.000000*%
%ADD12RoundRect,0.249999X-0.450001X-1.450001X0.450001X-1.450001X0.450001X1.450001X-0.450001X1.450001X0*%
%ADD13RoundRect,0.250000X-1.075000X0.362500X-1.075000X-0.362500X1.075000X-0.362500X1.075000X0.362500X0*%
%ADD14RoundRect,0.250000X0.625000X-0.312500X0.625000X0.312500X-0.625000X0.312500X-0.625000X-0.312500X0*%
%ADD15RoundRect,0.250000X-0.262500X-0.450000X0.262500X-0.450000X0.262500X0.450000X-0.262500X0.450000X0*%
%ADD16RoundRect,0.150000X0.825000X0.150000X-0.825000X0.150000X-0.825000X-0.150000X0.825000X-0.150000X0*%
%ADD17R,5.400000X2.900000*%
%ADD18FreePoly2,0.000000*%
%ADD19FreePoly3,90.000000*%
%ADD20FreePoly4,180.000000*%
%ADD21FreePoly5,270.000000*%
%ADD22RoundRect,0.250000X0.350000X0.450000X-0.350000X0.450000X-0.350000X-0.450000X0.350000X-0.450000X0*%
%ADD23RoundRect,0.250000X0.262500X0.450000X-0.262500X0.450000X-0.262500X-0.450000X0.262500X-0.450000X0*%
%ADD24RoundRect,0.250000X1.500000X0.550000X-1.500000X0.550000X-1.500000X-0.550000X1.500000X-0.550000X0*%
%ADD25RoundRect,0.250000X-0.625000X0.312500X-0.625000X-0.312500X0.625000X-0.312500X0.625000X0.312500X0*%
%ADD26FreePoly1,180.000000*%
%ADD27RoundRect,0.250000X-0.650000X0.325000X-0.650000X-0.325000X0.650000X-0.325000X0.650000X0.325000X0*%
%ADD28RoundRect,0.137500X0.137500X-0.862500X0.137500X0.862500X-0.137500X0.862500X-0.137500X-0.862500X0*%
%ADD29FreePoly1,0.000000*%
%ADD30RoundRect,0.250000X-0.475000X0.250000X-0.475000X-0.250000X0.475000X-0.250000X0.475000X0.250000X0*%
%ADD31R,2.200000X2.150000*%
%ADD32RoundRect,0.250000X1.000000X-1.950000X1.000000X1.950000X-1.000000X1.950000X-1.000000X-1.950000X0*%
%ADD33RoundRect,0.250000X0.475000X-0.250000X0.475000X0.250000X-0.475000X0.250000X-0.475000X-0.250000X0*%
G04 APERTURE END LIST*
D10*
%TO.C,U25*%
X129284302Y-136683609D03*
%TD*%
D11*
%TO.C,U20*%
X150252532Y-47433609D03*
%TD*%
D12*
%TO.C,C6*%
X156127532Y-81933609D03*
X160227532Y-81933609D03*
%TD*%
D13*
%TO.C,RSENSE1*%
X145627532Y-84683609D03*
X145627532Y-89308609D03*
%TD*%
D14*
%TO.C,R3*%
X166159886Y-92463208D03*
X166159886Y-89538208D03*
%TD*%
D15*
%TO.C,R1*%
X135377532Y-97433609D03*
X137202532Y-97433609D03*
%TD*%
D16*
%TO.C,U26*%
X140237216Y-104021793D03*
X140237216Y-102751793D03*
X140237216Y-101481793D03*
X140237216Y-100211793D03*
X135287216Y-100211793D03*
X135287216Y-101481793D03*
X135287216Y-102751793D03*
X135287216Y-104021793D03*
%TD*%
D17*
%TO.C,L1*%
X138522846Y-62545328D03*
X138522846Y-72445328D03*
%TD*%
D18*
%TO.C,U34*%
X156019532Y-136683609D03*
%TD*%
D19*
%TO.C,U14*%
X110626532Y-104183609D03*
%TD*%
%TO.C,U10*%
X182627532Y-64019234D03*
%TD*%
D20*
%TO.C,U29*%
X183377532Y-111868609D03*
%TD*%
D10*
%TO.C,U23*%
X134674147Y-136683609D03*
%TD*%
D20*
%TO.C,U28*%
X183377532Y-114683609D03*
%TD*%
D21*
%TO.C,U16*%
X110699511Y-65738696D03*
%TD*%
D22*
%TO.C,R2*%
X149377532Y-97433609D03*
X147377532Y-97433609D03*
%TD*%
D23*
%TO.C,R5*%
X159093687Y-117698363D03*
X157268687Y-117698363D03*
%TD*%
D19*
%TO.C,U5*%
X182627532Y-69531234D03*
%TD*%
D24*
%TO.C,C1*%
X129071126Y-63476908D03*
X123471126Y-63476908D03*
%TD*%
D21*
%TO.C,U17*%
X110699511Y-70168696D03*
%TD*%
D11*
%TO.C,U21*%
X146627532Y-47433609D03*
%TD*%
D25*
%TO.C,R11*%
X166620333Y-100881234D03*
X166620333Y-103806234D03*
%TD*%
D26*
%TO.C,U22*%
X142992532Y-47433609D03*
%TD*%
D21*
%TO.C,U15*%
X110699511Y-61308696D03*
%TD*%
D19*
%TO.C,U4*%
X182627532Y-72289234D03*
%TD*%
D27*
%TO.C,C5*%
X129339479Y-89885457D03*
X129339479Y-92835457D03*
%TD*%
D18*
%TO.C,U31*%
X161806532Y-136683609D03*
%TD*%
D20*
%TO.C,U27*%
X183377532Y-117490609D03*
%TD*%
D10*
%TO.C,U9*%
X132877532Y-136683609D03*
%TD*%
%TO.C,U24*%
X131080917Y-136683609D03*
%TD*%
D28*
%TO.C,U2*%
X149669395Y-113780806D03*
X150939395Y-113780806D03*
X152209395Y-113780806D03*
X153479395Y-113780806D03*
X154749395Y-113780806D03*
X156019395Y-113780806D03*
X157289395Y-113780806D03*
X158559395Y-113780806D03*
X159829395Y-113780806D03*
X161099395Y-113780806D03*
X162369395Y-113780806D03*
X163639395Y-113780806D03*
X163639395Y-104480806D03*
X162369395Y-104480806D03*
X161099395Y-104480806D03*
X159829395Y-104480806D03*
X158559395Y-104480806D03*
X157289395Y-104480806D03*
X156019395Y-104480806D03*
X154749395Y-104480806D03*
X153479395Y-104480806D03*
X152209395Y-104480806D03*
X150939395Y-104480806D03*
X149669395Y-104480806D03*
%TD*%
D14*
%TO.C,R8*%
X165253306Y-98647146D03*
X165253306Y-95722146D03*
%TD*%
D19*
%TO.C,U11*%
X110626532Y-95919234D03*
%TD*%
D29*
%TO.C,U19*%
X153877532Y-47433609D03*
%TD*%
D21*
%TO.C,U18*%
X110699511Y-74599373D03*
%TD*%
D30*
%TO.C,C2*%
X131660506Y-89814846D03*
X131660506Y-91714846D03*
%TD*%
D19*
%TO.C,U8*%
X182627532Y-66779234D03*
%TD*%
D25*
%TO.C,R4*%
X162163381Y-94276410D03*
X162163381Y-97201410D03*
%TD*%
D19*
%TO.C,U12*%
X110626532Y-98671234D03*
%TD*%
D31*
%TO.C,D1*%
X142764048Y-77572543D03*
X138364048Y-77572543D03*
%TD*%
D19*
%TO.C,U13*%
X110626532Y-101429234D03*
%TD*%
D20*
%TO.C,U30*%
X183377532Y-109058609D03*
%TD*%
D32*
%TO.C,C4*%
X152627532Y-77383609D03*
X152627532Y-68983609D03*
%TD*%
D18*
%TO.C,U33*%
X157948532Y-136683609D03*
%TD*%
%TO.C,U32*%
X159877532Y-136683609D03*
%TD*%
D33*
%TO.C,C3*%
X144697598Y-95643035D03*
X144697598Y-93743035D03*
%TD*%
D23*
%TO.C,R_pot_sub1*%
X132452532Y-97433609D03*
X130627532Y-97433609D03*
%TD*%
M02*
