%TF.GenerationSoftware,KiCad,Pcbnew,9.0.5*%
%TF.CreationDate,2026-04-22T15:43:53+01:00*%
%TF.ProjectId,EWOD,45574f44-2e6b-4696-9361-645f70636258,7*%
%TF.SameCoordinates,Original*%
%TF.FileFunction,Profile,NP*%
%FSLAX46Y46*%
G04 Gerber Fmt 4.6, Leading zero omitted, Abs format (unit mm)*
G04 Created by KiCad (PCBNEW 9.0.5) date 2026-04-22 15:43:53*
%MOMM*%
%LPD*%
G01*
G04 APERTURE LIST*
%TA.AperFunction,Profile*%
%ADD10C,0.050000*%
%TD*%
%TA.AperFunction,Profile*%
%ADD11C,0.100000*%
%TD*%
G04 APERTURE END LIST*
D10*
X138877532Y-55933609D02*
X138877532Y-37683609D01*
X122377532Y-128933609D02*
X122377532Y-147183609D01*
X119127532Y-77433609D02*
X100877532Y-77433609D01*
X121127532Y-70183609D02*
X121127532Y-98183609D01*
X193127532Y-59183609D02*
X193127532Y-78183609D01*
X168377532Y-128933609D02*
X168377532Y-147183609D01*
X174877532Y-103683609D02*
X193127532Y-103683609D01*
X168377532Y-147183609D02*
X149377532Y-147183609D01*
X121127532Y-57933609D02*
X121127532Y-66183609D01*
X174877532Y-70433609D02*
X174877532Y-78183609D01*
X141377532Y-147183609D02*
X122377532Y-147183609D01*
X119127532Y-66183609D02*
X119127532Y-58433609D01*
X174877532Y-114933609D02*
X174877532Y-122683609D01*
X134127532Y-126933609D02*
X157127532Y-126933609D01*
X134127532Y-128933609D02*
X141377532Y-128933609D01*
X119127532Y-90433609D02*
X100877532Y-90433609D01*
X146127532Y-57933609D02*
X121127532Y-57933609D01*
X193127532Y-103683609D02*
X193127532Y-122683609D01*
X119127532Y-70183609D02*
X119127532Y-77433609D01*
X100877532Y-109433609D02*
X100877532Y-90433609D01*
X161127532Y-126933609D02*
X172877532Y-126933609D01*
X141377532Y-128933609D02*
X141377532Y-147183609D01*
X130127532Y-128933609D02*
X122377532Y-128933609D01*
X174877532Y-78183609D02*
X193127532Y-78183609D01*
X121127532Y-102183609D02*
X121127532Y-126933609D01*
X161127532Y-128933609D02*
X168377532Y-128933609D01*
X121127532Y-126933609D02*
X130127532Y-126933609D01*
X174877532Y-59183609D02*
X193127532Y-59183609D01*
X157127532Y-128933609D02*
X149377532Y-128933609D01*
X174877532Y-110933609D02*
X174877532Y-103683609D01*
X138877532Y-37683609D02*
X157877532Y-37683609D01*
X174877532Y-122683609D02*
X193127532Y-122683609D01*
X157877532Y-55933609D02*
X157877532Y-37683609D01*
X172877532Y-66433609D02*
X172877532Y-57933609D01*
X119127532Y-98183609D02*
X119127532Y-90433609D01*
X119127532Y-109433609D02*
X100877532Y-109433609D01*
X100877532Y-77433609D02*
X100877532Y-58433609D01*
X119127532Y-58433609D02*
X100877532Y-58433609D01*
X149377532Y-128933609D02*
X149377532Y-147183609D01*
X150127532Y-55933609D02*
X157877532Y-55933609D01*
X172877532Y-110933609D02*
X172877532Y-70433609D01*
X146127532Y-55933609D02*
X138877532Y-55933609D01*
X172877532Y-57933609D02*
X150127532Y-57933609D01*
X172877532Y-114933609D02*
X172877532Y-126933609D01*
X119127532Y-102183609D02*
X119127532Y-109433609D01*
X174877532Y-66433609D02*
X174877532Y-59183609D01*
D11*
%TO.C,H7*%
X119127532Y-70183609D02*
G75*
G02*
X121127532Y-70183609I1000000J0D01*
G01*
X121127532Y-66183609D02*
G75*
G02*
X119127532Y-66183609I-1000000J0D01*
G01*
%TO.C,H3*%
X146127532Y-55933609D02*
G75*
G02*
X146127532Y-57933609I0J-1000000D01*
G01*
X150127532Y-57933609D02*
G75*
G02*
X150127532Y-55933609I0J1000000D01*
G01*
%TO.C,H2*%
X172877532Y-114933609D02*
G75*
G02*
X174877532Y-114933609I1000000J0D01*
G01*
X174877532Y-110933609D02*
G75*
G02*
X172877532Y-110933609I-1000000J0D01*
G01*
%TO.C,H1*%
X172877532Y-70433609D02*
G75*
G02*
X174877532Y-70433609I1000000J0D01*
G01*
X174877532Y-66433609D02*
G75*
G02*
X172877532Y-66433609I-1000000J0D01*
G01*
%TO.C,H6*%
X119127532Y-102183609D02*
G75*
G02*
X121127532Y-102183609I1000000J0D01*
G01*
X121127532Y-98183609D02*
G75*
G02*
X119127532Y-98183609I-1000000J0D01*
G01*
%TO.C,H4*%
X157127532Y-126933609D02*
G75*
G02*
X157127532Y-128933609I0J-1000000D01*
G01*
X161127532Y-128933609D02*
G75*
G02*
X161127532Y-126933609I0J1000000D01*
G01*
%TO.C,H5*%
X130127532Y-126933609D02*
G75*
G02*
X130127532Y-128933609I0J-1000000D01*
G01*
X134127532Y-128933609D02*
G75*
G02*
X134127532Y-126933609I0J1000000D01*
G01*
%TD*%
M02*
